<mxfile host="app.diagrams.net" modified="2023-12-22T14:43:29.927Z" agent="Mozilla/5.0 (Windows NT 10.0; Win64; x64) AppleWebKit/537.36 (KHTML, like Gecko) Chrome/120.0.0.0 Safari/537.36" etag="_0SZcC7vjHCyVJQPMAEg" version="22.1.11" type="device">
  <diagram name="Page-1" id="vGTxIt5lixdtX_cG3duS">
    <mxGraphModel dx="2876" dy="3404" grid="1" gridSize="10" guides="1" tooltips="1" connect="1" arrows="1" fold="1" page="1" pageScale="1" pageWidth="827" pageHeight="1169" math="0" shadow="0">
      <root>
        <mxCell id="0" />
        <mxCell id="1" parent="0" />
        <mxCell id="f91O2NCgC9oTGEupG2Yg-21" value="" style="rounded=1;whiteSpace=wrap;html=1;sketch=1;hachureGap=4;jiggle=2;curveFitting=1;fontFamily=Architects Daughter;fontSource=https%3A%2F%2Ffonts.googleapis.com%2Fcss%3Ffamily%3DArchitects%2BDaughter;fontSize=20;direction=west;" parent="1" vertex="1">
          <mxGeometry x="273.5" y="-1300" width="330" height="650" as="geometry" />
        </mxCell>
        <mxCell id="f91O2NCgC9oTGEupG2Yg-24" value="&lt;div style=&quot;text-align: left;&quot;&gt;&lt;font face=&quot;WordVisi_MSFontService, Calibri, Calibri_EmbeddedFont, Calibri_MSFontService, sans-serif&quot;&gt;&lt;b&gt;RÃ©servation&lt;/b&gt;&lt;/font&gt;&lt;/div&gt;&lt;span style=&quot;accent-color: auto; place-content: normal; place-items: normal; place-self: auto; alignment-baseline: auto; animation: 0s ease 0s 1 normal none running none; animation-composition: replace; app-region: none; appearance: none; aspect-ratio: auto; backdrop-filter: none; backface-visibility: visible; background: none 0% 0% / auto repeat scroll padding-box border-box rgba(0, 0, 0, 0); background-blend-mode: normal; baseline-shift: 0px; baseline-source: auto; border-image: none 100% / 1 / 0 stretch; border-color: rgb(0, 0, 0); border-collapse: separate; border-end-end-radius: 0px; border-end-start-radius: 0px; border-width: 0px; border-style: none; border-spacing: 0px; border-start-end-radius: 0px; border-start-start-radius: 0px; border-radius: 0px; inset: auto; box-shadow: none; box-sizing: content-box; break-after: auto; break-before: auto; break-inside: auto; buffered-rendering: auto; caption-side: top; caret-color: rgb(0, 0, 0); clear: none; clip: auto; clip-path: none; clip-rule: nonzero; color-interpolation: srgb; color-interpolation-filters: linearrgb; color-rendering: auto; color-scheme: normal; columns: auto; column-fill: balance; gap: normal; column-rule: 0px rgb(0, 0, 0); column-span: none; contain: none; contain-intrinsic-block-size: none; contain-intrinsic-size: none; contain-intrinsic-inline-size: none; container: none; content: normal; content-visibility: visible; counter-increment: none; counter-reset: none; counter-set: none; cursor: text; cx: 0px; cy: 0px; d: none; direction: ltr; display: inline; dominant-baseline: auto; empty-cells: show; fill: rgb(0, 0, 0); fill-opacity: 1; fill-rule: nonzero; filter: none; flex: 0 1 auto; flex-flow: row; float: none; flood-color: rgb(0, 0, 0); flood-opacity: 1; font-family: WordVisi_MSFontService, Calibri, Calibri_EmbeddedFont, Calibri_MSFontService, sans-serif; font-feature-settings: normal; font-kerning: none; font-optical-sizing: auto; font-palette: normal; font-size: 14.6667px; font-stretch: 100%; font-synthesis: weight style small-caps; font-variant-ligatures: no-common-ligatures no-discretionary-ligatures no-historical-ligatures no-contextual; font-variant-numeric: normal; font-variant-east-asian: normal; font-variant-alternates: normal; font-variant-position: normal; font-variation-settings: normal; font-weight: 700; forced-color-adjust: auto; grid-area: auto / auto / auto / auto; grid: auto-flow auto / none; height: auto; hyphenate-character: auto; hyphenate-limit-chars: auto; hyphens: manual; image-orientation: from-image; image-rendering: auto; initial-letter: normal; inline-size: auto; inset-block: auto; inset-inline: auto; isolation: auto; lighting-color: rgb(255, 255, 255); line-break: auto; line-height: 19.425px; list-style: outside none disc; margin: 0px; marker: none; mask: none; mask-type: luminance; math-depth: 0; math-shift: normal; math-style: normal; max-height: none; max-width: none; min-height: 0px; min-width: 0px; mix-blend-mode: normal; object-fit: fill; object-position: 50% 50%; object-view-box: none; offset: auto; opacity: 1; order: 0; outline: rgb(0, 0, 0) none 0px; outline-offset: 0px; overflow: visible; overflow-anchor: auto; overflow-clip-margin: 0px; overflow-wrap: break-word; overlay: none; overscroll-behavior-block: auto; overscroll-behavior-inline: auto; overscroll-behavior: auto; padding: 0px; page: auto; paint-order: normal; perspective: none; perspective-origin: 0px 0px; pointer-events: auto; position: static; quotes: auto; r: 0px; resize: none; rotate: none; ruby-position: over; rx: auto; ry: auto; scale: none; scroll-behavior: auto; scroll-margin-block: 0px; scroll-margin: 0px; scroll-margin-inline: 0px; scroll-padding-block: auto; scroll-padding: auto; scroll-padding-inline: auto; scroll-snap-align: none; scroll-snap-stop: normal; scroll-snap-type: none; scroll-timeline: none; scrollbar-gutter: auto; shape-image-threshold: 0; shape-margin: 0px; shape-outside: none; shape-rendering: auto; speak: normal; stop-color: rgb(0, 0, 0); stop-opacity: 1; stroke: none; stroke-dasharray: none; stroke-dashoffset: 0px; stroke-linecap: butt; stroke-linejoin: miter; stroke-miterlimit: 4; stroke-opacity: 1; stroke-width: 1px; tab-size: 8; table-layout: auto; text-align: left; text-align-last: auto; text-anchor: start; text-combine-upright: none; text-decoration-style: solid; text-decoration-color: rgb(0, 0, 0); text-decoration-skip-ink: auto; text-emphasis: none rgb(0, 0, 0); text-emphasis-position: over; text-orientation: mixed; text-overflow: clip; text-rendering: auto; text-shadow: none; text-size-adjust: auto; text-underline-offset: auto; text-underline-position: auto; timeline-scope: none; touch-action: auto; transform: none; transform-box: view-box; transform-origin: 0px 0px; transform-style: flat; transition: all 0s ease 0s; translate: none; unicode-bidi: normal; user-select: text; vector-effect: none; vertical-align: baseline; view-timeline: none; view-timeline-inset: 0px; view-transition-name: none; visibility: visible; border-block-end: 0px none rgb(0, 0, 0); border-block-start: 0px none rgb(0, 0, 0); border-inline-end: 0px none rgb(0, 0, 0); -webkit-border-image: none; border-inline-start: 0px none rgb(0, 0, 0); -webkit-box-align: stretch; -webkit-box-decoration-break: slice; -webkit-box-direction: normal; -webkit-box-flex: 0; -webkit-box-ordinal-group: 1; -webkit-box-orient: horizontal; -webkit-box-pack: start; -webkit-font-smoothing: auto; -webkit-line-break: auto; -webkit-locale: &amp;quot;fr-FR&amp;quot;; block-size: auto; margin-block: 0px; margin-inline: 0px; -webkit-mask-box-image-source: none; -webkit-mask-box-image-slice: 0 fill; -webkit-mask-box-image-width: auto; -webkit-mask-box-image-outset: 0; -webkit-mask-box-image-repeat: stretch; -webkit-mask: none 0% 0% / auto repeat border-box border-box; -webkit-mask-composite: source-over; max-block-size: none; max-inline-size: none; min-block-size: 0px; min-inline-size: 0px; padding-block: 0px; padding-inline: 0px; -webkit-print-color-adjust: economy; -webkit-rtl-ordering: logical; -webkit-ruby-position: before; -webkit-tap-highlight-color: rgba(0, 0, 0, 0); -webkit-text-combine: none; -webkit-text-fill-color: rgb(0, 0, 0); -webkit-text-orientation: vertical-right; -webkit-text-security: none; -webkit-text-stroke-color: rgb(0, 0, 0); -webkit-user-drag: none; -webkit-user-modify: read-only; -webkit-writing-mode: horizontal-tb; width: auto; will-change: auto; word-break: normal; writing-mode: horizontal-tb; x: 0px; y: 0px; z-index: auto; zoom: 1;&quot; class=&quot;TextRun SCXW11041752 BCX0&quot; lang=&quot;FR-FR&quot; data-contrast=&quot;auto&quot;&gt;&lt;/span&gt;" style="text;html=1;strokeColor=none;fillColor=none;align=center;verticalAlign=middle;whiteSpace=wrap;rounded=0;fontSize=20;fontFamily=Architects Daughter;" parent="1" vertex="1">
          <mxGeometry x="310" y="-1260" width="210" height="30" as="geometry" />
        </mxCell>
        <mxCell id="f91O2NCgC9oTGEupG2Yg-25" value="&lt;div style=&quot;text-align: left;&quot;&gt;&lt;font face=&quot;WordVisi_MSFontService, Calibri, Calibri_EmbeddedFont, Calibri_MSFontService, sans-serif&quot;&gt;&lt;b&gt;id_chambre&lt;/b&gt;&lt;/font&gt;&lt;/div&gt;&lt;span style=&quot;accent-color: auto; place-content: normal; place-items: normal; place-self: auto; alignment-baseline: auto; animation: 0s ease 0s 1 normal none running none; animation-composition: replace; app-region: none; appearance: none; aspect-ratio: auto; backdrop-filter: none; backface-visibility: visible; background: none 0% 0% / auto repeat scroll padding-box border-box rgba(0, 0, 0, 0); background-blend-mode: normal; baseline-shift: 0px; baseline-source: auto; border-image: none 100% / 1 / 0 stretch; border-color: rgb(0, 0, 0); border-collapse: separate; border-end-end-radius: 0px; border-end-start-radius: 0px; border-width: 0px; border-style: none; border-spacing: 0px; border-start-end-radius: 0px; border-start-start-radius: 0px; border-radius: 0px; inset: auto; box-shadow: none; box-sizing: content-box; break-after: auto; break-before: auto; break-inside: auto; buffered-rendering: auto; caption-side: top; caret-color: rgb(0, 0, 0); clear: none; clip: auto; clip-path: none; clip-rule: nonzero; color-interpolation: srgb; color-interpolation-filters: linearrgb; color-rendering: auto; color-scheme: normal; columns: auto; column-fill: balance; gap: normal; column-rule: 0px rgb(0, 0, 0); column-span: none; contain: none; contain-intrinsic-block-size: none; contain-intrinsic-size: none; contain-intrinsic-inline-size: none; container: none; content: normal; content-visibility: visible; counter-increment: none; counter-reset: none; counter-set: none; cursor: text; cx: 0px; cy: 0px; d: none; direction: ltr; display: inline; dominant-baseline: auto; empty-cells: show; fill: rgb(0, 0, 0); fill-opacity: 1; fill-rule: nonzero; filter: none; flex: 0 1 auto; flex-flow: row; float: none; flood-color: rgb(0, 0, 0); flood-opacity: 1; font-family: WordVisi_MSFontService, Calibri, Calibri_EmbeddedFont, Calibri_MSFontService, sans-serif; font-feature-settings: normal; font-kerning: none; font-optical-sizing: auto; font-palette: normal; font-size: 14.6667px; font-stretch: 100%; font-synthesis: weight style small-caps; font-variant-ligatures: no-common-ligatures no-discretionary-ligatures no-historical-ligatures no-contextual; font-variant-numeric: normal; font-variant-east-asian: normal; font-variant-alternates: normal; font-variant-position: normal; font-variation-settings: normal; font-weight: 700; forced-color-adjust: auto; grid-area: auto / auto / auto / auto; grid: auto-flow auto / none; height: auto; hyphenate-character: auto; hyphenate-limit-chars: auto; hyphens: manual; image-orientation: from-image; image-rendering: auto; initial-letter: normal; inline-size: auto; inset-block: auto; inset-inline: auto; isolation: auto; lighting-color: rgb(255, 255, 255); line-break: auto; line-height: 19.425px; list-style: outside none disc; margin: 0px; marker: none; mask: none; mask-type: luminance; math-depth: 0; math-shift: normal; math-style: normal; max-height: none; max-width: none; min-height: 0px; min-width: 0px; mix-blend-mode: normal; object-fit: fill; object-position: 50% 50%; object-view-box: none; offset: auto; opacity: 1; order: 0; outline: rgb(0, 0, 0) none 0px; outline-offset: 0px; overflow: visible; overflow-anchor: auto; overflow-clip-margin: 0px; overflow-wrap: break-word; overlay: none; overscroll-behavior-block: auto; overscroll-behavior-inline: auto; overscroll-behavior: auto; padding: 0px; page: auto; paint-order: normal; perspective: none; perspective-origin: 0px 0px; pointer-events: auto; position: static; quotes: auto; r: 0px; resize: none; rotate: none; ruby-position: over; rx: auto; ry: auto; scale: none; scroll-behavior: auto; scroll-margin-block: 0px; scroll-margin: 0px; scroll-margin-inline: 0px; scroll-padding-block: auto; scroll-padding: auto; scroll-padding-inline: auto; scroll-snap-align: none; scroll-snap-stop: normal; scroll-snap-type: none; scroll-timeline: none; scrollbar-gutter: auto; shape-image-threshold: 0; shape-margin: 0px; shape-outside: none; shape-rendering: auto; speak: normal; stop-color: rgb(0, 0, 0); stop-opacity: 1; stroke: none; stroke-dasharray: none; stroke-dashoffset: 0px; stroke-linecap: butt; stroke-linejoin: miter; stroke-miterlimit: 4; stroke-opacity: 1; stroke-width: 1px; tab-size: 8; table-layout: auto; text-align: left; text-align-last: auto; text-anchor: start; text-combine-upright: none; text-decoration-style: solid; text-decoration-color: rgb(0, 0, 0); text-decoration-skip-ink: auto; text-emphasis: none rgb(0, 0, 0); text-emphasis-position: over; text-orientation: mixed; text-overflow: clip; text-rendering: auto; text-shadow: none; text-size-adjust: auto; text-underline-offset: auto; text-underline-position: auto; timeline-scope: none; touch-action: auto; transform: none; transform-box: view-box; transform-origin: 0px 0px; transform-style: flat; transition: all 0s ease 0s; translate: none; unicode-bidi: normal; user-select: text; vector-effect: none; vertical-align: baseline; view-timeline: none; view-timeline-inset: 0px; view-transition-name: none; visibility: visible; border-block-end: 0px none rgb(0, 0, 0); border-block-start: 0px none rgb(0, 0, 0); border-inline-end: 0px none rgb(0, 0, 0); -webkit-border-image: none; border-inline-start: 0px none rgb(0, 0, 0); -webkit-box-align: stretch; -webkit-box-decoration-break: slice; -webkit-box-direction: normal; -webkit-box-flex: 0; -webkit-box-ordinal-group: 1; -webkit-box-orient: horizontal; -webkit-box-pack: start; -webkit-font-smoothing: auto; -webkit-line-break: auto; -webkit-locale: &amp;quot;fr-FR&amp;quot;; block-size: auto; margin-block: 0px; margin-inline: 0px; -webkit-mask-box-image-source: none; -webkit-mask-box-image-slice: 0 fill; -webkit-mask-box-image-width: auto; -webkit-mask-box-image-outset: 0; -webkit-mask-box-image-repeat: stretch; -webkit-mask: none 0% 0% / auto repeat border-box border-box; -webkit-mask-composite: source-over; max-block-size: none; max-inline-size: none; min-block-size: 0px; min-inline-size: 0px; padding-block: 0px; padding-inline: 0px; -webkit-print-color-adjust: economy; -webkit-rtl-ordering: logical; -webkit-ruby-position: before; -webkit-tap-highlight-color: rgba(0, 0, 0, 0); -webkit-text-combine: none; -webkit-text-fill-color: rgb(0, 0, 0); -webkit-text-orientation: vertical-right; -webkit-text-security: none; -webkit-text-stroke-color: rgb(0, 0, 0); -webkit-user-drag: none; -webkit-user-modify: read-only; -webkit-writing-mode: horizontal-tb; width: auto; will-change: auto; word-break: normal; writing-mode: horizontal-tb; x: 0px; y: 0px; z-index: auto; zoom: 1;&quot; class=&quot;TextRun SCXW11041752 BCX0&quot; lang=&quot;FR-FR&quot; data-contrast=&quot;auto&quot;&gt;&lt;/span&gt;" style="text;html=1;strokeColor=none;fillColor=none;align=center;verticalAlign=middle;whiteSpace=wrap;rounded=0;fontSize=20;fontFamily=Architects Daughter;" parent="1" vertex="1">
          <mxGeometry x="260" y="-1190" width="200" height="30" as="geometry" />
        </mxCell>
        <mxCell id="f91O2NCgC9oTGEupG2Yg-26" value="&lt;b&gt;&lt;font style=&quot;font-size: 23px;&quot;&gt;date_debut_reservation&lt;/font&gt;&lt;/b&gt;&lt;span style=&quot;margin: 0px; padding: 0px; user-select: text; -webkit-user-drag: none; -webkit-tap-highlight-color: transparent; font-family: Calibri, Calibri_EmbeddedFont, Calibri_MSFontService, sans-serif; font-size: 14.6667px; font-variant-ligatures: none; font-weight: 700; text-align: left; background-color: rgb(255, 255, 255);&quot; class=&quot;NormalTextRun SCXW11041752 BCX0&quot;&gt; &lt;/span&gt;" style="text;html=1;strokeColor=none;fillColor=none;align=center;verticalAlign=middle;whiteSpace=wrap;rounded=0;fontSize=20;fontFamily=Architects Daughter;" parent="1" vertex="1">
          <mxGeometry x="303.5" y="-1114" width="270" height="40" as="geometry" />
        </mxCell>
        <mxCell id="f91O2NCgC9oTGEupG2Yg-27" value=" &lt;span style=&quot;margin: 0px; padding: 0px; user-select: text; -webkit-user-drag: none; -webkit-tap-highlight-color: transparent; background-repeat: repeat-x; background-position: left bottom; background-image: var(--urlSpellingErrorV2, url(&#39;data:image/svg+xml;base64,PD94bWwgdmVyc2lvbj0iMS4wIiBlbmNvZGluZz0iVVRGLTgiPz4KPHN2ZyB3aWR0aD0iNXB4IiBoZWlnaHQ9IjRweCIgdmlld0JveD0iMCAwIDUgNCIgdmVyc2lvbj0iMS4xIiB4bWxucz0iaHR0cDovL3d3dy53My5vcmcvMjAwMC9zdmciIHhtbG5zOnhsaW5rPSJodHRwOi8vd3d3LnczLm9yZy8xOTk5L3hsaW5rIj4KICAgIDwhLS0gR2VuZXJhdG9yOiBTa2V0Y2ggNTYuMiAoODE2NzIpIC0gaHR0cHM6Ly9za2V0Y2guY29tIC0tPgogICAgPHRpdGxlPnNwZWxsaW5nX3NxdWlnZ2xlPC90aXRsZT4KICAgIDxkZXNjPkNyZWF0ZWQgd2l0aCBTa2V0Y2guPC9kZXNjPgogICAgPGcgaWQ9IkZsYWdzIiBzdHJva2U9Im5vbmUiIHN0cm9rZS13aWR0aD0iMSIgZmlsbD0ibm9uZSIgZmlsbC1ydWxlPSJldmVub2RkIj4KICAgICAgICA8ZyB0cmFuc2Zvcm09InRyYW5zbGF0ZSgtMTAxMC4wMDAwMDAsIC0yOTYuMDAwMDAwKSIgaWQ9InNwZWxsaW5nX3NxdWlnZ2xlIj4KICAgICAgICAgICAgPGcgdHJhbnNmb3JtPSJ0cmFuc2xhdGUoMTAxMC4wMDAwMDAsIDI5Ni4wMDAwMDApIj4KICAgICAgICAgICAgICAgIDxwYXRoIGQ9Ik0wLDMgQzEuMjUsMyAxLjI1LDEgMi41LDEgQzMuNzUsMSAzLjc1LDMgNSwzIiBpZD0iUGF0aCIgc3Ryb2tlPSIjRUIwMDAwIiBzdHJva2Utd2lkdGg9IjEiPjwvcGF0aD4KICAgICAgICAgICAgICAgIDxyZWN0IGlkPSJSZWN0YW5nbGUiIHg9IjAiIHk9IjAiIHdpZHRoPSI1IiBoZWlnaHQ9IjQiPjwvcmVjdD4KICAgICAgICAgICAgPC9nPgogICAgICAgIDwvZz4KICAgIDwvZz4KPC9zdmc+&#39;)); border-bottom: 1px solid transparent; font-family: Calibri, Calibri_EmbeddedFont, Calibri_MSFontService, sans-serif; font-variant-ligatures: none; text-align: left; background-color: rgb(255, 255, 255);&quot; class=&quot;NormalTextRun SpellingErrorV2Themed SCXW11041752 BCX0&quot;&gt;&lt;font size=&quot;1&quot; style=&quot;&quot;&gt;&lt;b style=&quot;font-size: 23px;&quot;&gt;date_de_fin_reservation&lt;/b&gt;&lt;/font&gt;&lt;/span&gt;" style="text;html=1;strokeColor=none;fillColor=none;align=center;verticalAlign=middle;whiteSpace=wrap;rounded=0;fontSize=20;fontFamily=Architects Daughter;" parent="1" vertex="1">
          <mxGeometry x="310" y="-1060" width="230" height="40" as="geometry" />
        </mxCell>
        <mxCell id="f91O2NCgC9oTGEupG2Yg-28" value="&lt;b style=&quot;font-size: 27px;&quot;&gt;utilisate&lt;span style=&quot;margin: 0px; padding: 0px; user-select: text; -webkit-user-drag: none; -webkit-tap-highlight-color: transparent; background-repeat: repeat-x; background-position: left bottom; background-image: var(--urlSpellingErrorV2, url(&#39;data:image/svg+xml;base64,PD94bWwgdmVyc2lvbj0iMS4wIiBlbmNvZGluZz0iVVRGLTgiPz4KPHN2ZyB3aWR0aD0iNXB4IiBoZWlnaHQ9IjRweCIgdmlld0JveD0iMCAwIDUgNCIgdmVyc2lvbj0iMS4xIiB4bWxucz0iaHR0cDovL3d3dy53My5vcmcvMjAwMC9zdmciIHhtbG5zOnhsaW5rPSJodHRwOi8vd3d3LnczLm9yZy8xOTk5L3hsaW5rIj4KICAgIDwhLS0gR2VuZXJhdG9yOiBTa2V0Y2ggNTYuMiAoODE2NzIpIC0gaHR0cHM6Ly9za2V0Y2guY29tIC0tPgogICAgPHRpdGxlPnNwZWxsaW5nX3NxdWlnZ2xlPC90aXRsZT4KICAgIDxkZXNjPkNyZWF0ZWQgd2l0aCBTa2V0Y2guPC9kZXNjPgogICAgPGcgaWQ9IkZsYWdzIiBzdHJva2U9Im5vbmUiIHN0cm9rZS13aWR0aD0iMSIgZmlsbD0ibm9uZSIgZmlsbC1ydWxlPSJldmVub2RkIj4KICAgICAgICA8ZyB0cmFuc2Zvcm09InRyYW5zbGF0ZSgtMTAxMC4wMDAwMDAsIC0yOTYuMDAwMDAwKSIgaWQ9InNwZWxsaW5nX3NxdWlnZ2xlIj4KICAgICAgICAgICAgPGcgdHJhbnNmb3JtPSJ0cmFuc2xhdGUoMTAxMC4wMDAwMDAsIDI5Ni4wMDAwMDApIj4KICAgICAgICAgICAgICAgIDxwYXRoIGQ9Ik0wLDMgQzEuMjUsMyAxLjI1LDEgMi41LDEgQzMuNzUsMSAzLjc1LDMgNSwzIiBpZD0iUGF0aCIgc3Ryb2tlPSIjRUIwMDAwIiBzdHJva2Utd2lkdGg9IjEiPjwvcGF0aD4KICAgICAgICAgICAgICAgIDxyZWN0IGlkPSJSZWN0YW5nbGUiIHg9IjAiIHk9IjAiIHdpZHRoPSI1IiBoZWlnaHQ9IjQiPjwvcmVjdD4KICAgICAgICAgICAgPC9nPgogICAgICAgIDwvZz4KICAgIDwvZz4KPC9zdmc+&#39;)); border-bottom: 1px solid transparent; font-family: Calibri, Calibri_EmbeddedFont, Calibri_MSFontService, sans-serif; font-variant-ligatures: none; text-align: left; background-color: rgb(255, 255, 255);&quot; class=&quot;NormalTextRun SpellingErrorV2Themed SCXW11041752 BCX0&quot;&gt;ur&lt;/span&gt;&lt;span style=&quot;margin: 0px; padding: 0px; user-select: text; -webkit-user-drag: none; -webkit-tap-highlight-color: transparent; background-repeat: repeat-x; background-position: left bottom; background-image: var(--urlSpellingErrorV2, url(&#39;data:image/svg+xml;base64,PD94bWwgdmVyc2lvbj0iMS4wIiBlbmNvZGluZz0iVVRGLTgiPz4KPHN2ZyB3aWR0aD0iNXB4IiBoZWlnaHQ9IjRweCIgdmlld0JveD0iMCAwIDUgNCIgdmVyc2lvbj0iMS4xIiB4bWxucz0iaHR0cDovL3d3dy53My5vcmcvMjAwMC9zdmciIHhtbG5zOnhsaW5rPSJodHRwOi8vd3d3LnczLm9yZy8xOTk5L3hsaW5rIj4KICAgIDwhLS0gR2VuZXJhdG9yOiBTa2V0Y2ggNTYuMiAoODE2NzIpIC0gaHR0cHM6Ly9za2V0Y2guY29tIC0tPgogICAgPHRpdGxlPnNwZWxsaW5nX3NxdWlnZ2xlPC90aXRsZT4KICAgIDxkZXNjPkNyZWF0ZWQgd2l0aCBTa2V0Y2guPC9kZXNjPgogICAgPGcgaWQ9IkZsYWdzIiBzdHJva2U9Im5vbmUiIHN0cm9rZS13aWR0aD0iMSIgZmlsbD0ibm9uZSIgZmlsbC1ydWxlPSJldmVub2RkIj4KICAgICAgICA8ZyB0cmFuc2Zvcm09InRyYW5zbGF0ZSgtMTAxMC4wMDAwMDAsIC0yOTYuMDAwMDAwKSIgaWQ9InNwZWxsaW5nX3NxdWlnZ2xlIj4KICAgICAgICAgICAgPGcgdHJhbnNmb3JtPSJ0cmFuc2xhdGUoMTAxMC4wMDAwMDAsIDI5Ni4wMDAwMDApIj4KICAgICAgICAgICAgICAgIDxwYXRoIGQ9Ik0wLDMgQzEuMjUsMyAxLjI1LDEgMi41LDEgQzMuNzUsMSAzLjc1LDMgNSwzIiBpZD0iUGF0aCIgc3Ryb2tlPSIjRUIwMDAwIiBzdHJva2Utd2lkdGg9IjEiPjwvcGF0aD4KICAgICAgICAgICAgICAgIDxyZWN0IGlkPSJSZWN0YW5nbGUiIHg9IjAiIHk9IjAiIHdpZHRoPSI1IiBoZWlnaHQ9IjQiPjwvcmVjdD4KICAgICAgICAgICAgPC9nPgogICAgICAgIDwvZz4KICAgIDwvZz4KPC9zdmc+&#39;)); border-bottom: 1px solid transparent; font-family: Calibri, Calibri_EmbeddedFont, Calibri_MSFontService, sans-serif; font-variant-ligatures: none; text-align: left; background-color: rgb(255, 255, 255);&quot; class=&quot;NormalTextRun SpellingErrorV2Themed SCXW11041752 BCX0&quot;&gt;_&lt;/span&gt;&lt;span style=&quot;margin: 0px; padding: 0px; user-select: text; -webkit-user-drag: none; -webkit-tap-highlight-color: transparent; background-repeat: repeat-x; background-position: left bottom; background-image: var(--urlSpellingErrorV2, url(&#39;data:image/svg+xml;base64,PD94bWwgdmVyc2lvbj0iMS4wIiBlbmNvZGluZz0iVVRGLTgiPz4KPHN2ZyB3aWR0aD0iNXB4IiBoZWlnaHQ9IjRweCIgdmlld0JveD0iMCAwIDUgNCIgdmVyc2lvbj0iMS4xIiB4bWxucz0iaHR0cDovL3d3dy53My5vcmcvMjAwMC9zdmciIHhtbG5zOnhsaW5rPSJodHRwOi8vd3d3LnczLm9yZy8xOTk5L3hsaW5rIj4KICAgIDwhLS0gR2VuZXJhdG9yOiBTa2V0Y2ggNTYuMiAoODE2NzIpIC0gaHR0cHM6Ly9za2V0Y2guY29tIC0tPgogICAgPHRpdGxlPnNwZWxsaW5nX3NxdWlnZ2xlPC90aXRsZT4KICAgIDxkZXNjPkNyZWF0ZWQgd2l0aCBTa2V0Y2guPC9kZXNjPgogICAgPGcgaWQ9IkZsYWdzIiBzdHJva2U9Im5vbmUiIHN0cm9rZS13aWR0aD0iMSIgZmlsbD0ibm9uZSIgZmlsbC1ydWxlPSJldmVub2RkIj4KICAgICAgICA8ZyB0cmFuc2Zvcm09InRyYW5zbGF0ZSgtMTAxMC4wMDAwMDAsIC0yOTYuMDAwMDAwKSIgaWQ9InNwZWxsaW5nX3NxdWlnZ2xlIj4KICAgICAgICAgICAgPGcgdHJhbnNmb3JtPSJ0cmFuc2xhdGUoMTAxMC4wMDAwMDAsIDI5Ni4wMDAwMDApIj4KICAgICAgICAgICAgICAgIDxwYXRoIGQ9Ik0wLDMgQzEuMjUsMyAxLjI1LDEgMi41LDEgQzMuNzUsMSAzLjc1LDMgNSwzIiBpZD0iUGF0aCIgc3Ryb2tlPSIjRUIwMDAwIiBzdHJva2Utd2lkdGg9IjEiPjwvcGF0aD4KICAgICAgICAgICAgICAgIDxyZWN0IGlkPSJSZWN0YW5nbGUiIHg9IjAiIHk9IjAiIHdpZHRoPSI1IiBoZWlnaHQ9IjQiPjwvcmVjdD4KICAgICAgICAgICAgPC9nPgogICAgICAgIDwvZz4KICAgIDwvZz4KPC9zdmc+&#39;)); border-bottom: 1px solid transparent; font-family: Calibri, Calibri_EmbeddedFont, Calibri_MSFontService, sans-serif; font-variant-ligatures: none; text-align: left; background-color: rgb(255, 255, 255);&quot; class=&quot;NormalTextRun SpellingErrorV2Themed SCXW11041752 BCX0&quot;&gt;id&lt;/span&gt;&lt;/b&gt;" style="text;html=1;strokeColor=none;fillColor=none;align=center;verticalAlign=middle;whiteSpace=wrap;rounded=0;fontSize=20;fontFamily=Architects Daughter;" parent="1" vertex="1">
          <mxGeometry x="300" y="-939" width="200" height="50" as="geometry" />
        </mxCell>
        <mxCell id="f91O2NCgC9oTGEupG2Yg-29" value="&lt;b style=&quot;font-size: 27px;&quot;&gt;chamb&lt;span style=&quot;margin: 0px; padding: 0px; user-select: text; -webkit-user-drag: none; -webkit-tap-highlight-color: transparent; background-repeat: repeat-x; background-position: left bottom; background-image: var(--urlSpellingErrorV2, url(&#39;data:image/svg+xml;base64,PD94bWwgdmVyc2lvbj0iMS4wIiBlbmNvZGluZz0iVVRGLTgiPz4KPHN2ZyB3aWR0aD0iNXB4IiBoZWlnaHQ9IjRweCIgdmlld0JveD0iMCAwIDUgNCIgdmVyc2lvbj0iMS4xIiB4bWxucz0iaHR0cDovL3d3dy53My5vcmcvMjAwMC9zdmciIHhtbG5zOnhsaW5rPSJodHRwOi8vd3d3LnczLm9yZy8xOTk5L3hsaW5rIj4KICAgIDwhLS0gR2VuZXJhdG9yOiBTa2V0Y2ggNTYuMiAoODE2NzIpIC0gaHR0cHM6Ly9za2V0Y2guY29tIC0tPgogICAgPHRpdGxlPnNwZWxsaW5nX3NxdWlnZ2xlPC90aXRsZT4KICAgIDxkZXNjPkNyZWF0ZWQgd2l0aCBTa2V0Y2guPC9kZXNjPgogICAgPGcgaWQ9IkZsYWdzIiBzdHJva2U9Im5vbmUiIHN0cm9rZS13aWR0aD0iMSIgZmlsbD0ibm9uZSIgZmlsbC1ydWxlPSJldmVub2RkIj4KICAgICAgICA8ZyB0cmFuc2Zvcm09InRyYW5zbGF0ZSgtMTAxMC4wMDAwMDAsIC0yOTYuMDAwMDAwKSIgaWQ9InNwZWxsaW5nX3NxdWlnZ2xlIj4KICAgICAgICAgICAgPGcgdHJhbnNmb3JtPSJ0cmFuc2xhdGUoMTAxMC4wMDAwMDAsIDI5Ni4wMDAwMDApIj4KICAgICAgICAgICAgICAgIDxwYXRoIGQ9Ik0wLDMgQzEuMjUsMyAxLjI1LDEgMi41LDEgQzMuNzUsMSAzLjc1LDMgNSwzIiBpZD0iUGF0aCIgc3Ryb2tlPSIjRUIwMDAwIiBzdHJva2Utd2lkdGg9IjEiPjwvcGF0aD4KICAgICAgICAgICAgICAgIDxyZWN0IGlkPSJSZWN0YW5nbGUiIHg9IjAiIHk9IjAiIHdpZHRoPSI1IiBoZWlnaHQ9IjQiPjwvcmVjdD4KICAgICAgICAgICAgPC9nPgogICAgICAgIDwvZz4KICAgIDwvZz4KPC9zdmc+&#39;)); border-bottom: 1px solid transparent; font-family: Calibri, Calibri_EmbeddedFont, Calibri_MSFontService, sans-serif; font-variant-ligatures: none; text-align: left; background-color: rgb(255, 255, 255);&quot; class=&quot;NormalTextRun SpellingErrorV2Themed SCXW11041752 BCX0&quot;&gt;re_&lt;/span&gt;&lt;span style=&quot;margin: 0px; padding: 0px; user-select: text; -webkit-user-drag: none; -webkit-tap-highlight-color: transparent; background-repeat: repeat-x; background-position: left bottom; background-image: var(--urlSpellingErrorV2, url(&#39;data:image/svg+xml;base64,PD94bWwgdmVyc2lvbj0iMS4wIiBlbmNvZGluZz0iVVRGLTgiPz4KPHN2ZyB3aWR0aD0iNXB4IiBoZWlnaHQ9IjRweCIgdmlld0JveD0iMCAwIDUgNCIgdmVyc2lvbj0iMS4xIiB4bWxucz0iaHR0cDovL3d3dy53My5vcmcvMjAwMC9zdmciIHhtbG5zOnhsaW5rPSJodHRwOi8vd3d3LnczLm9yZy8xOTk5L3hsaW5rIj4KICAgIDwhLS0gR2VuZXJhdG9yOiBTa2V0Y2ggNTYuMiAoODE2NzIpIC0gaHR0cHM6Ly9za2V0Y2guY29tIC0tPgogICAgPHRpdGxlPnNwZWxsaW5nX3NxdWlnZ2xlPC90aXRsZT4KICAgIDxkZXNjPkNyZWF0ZWQgd2l0aCBTa2V0Y2guPC9kZXNjPgogICAgPGcgaWQ9IkZsYWdzIiBzdHJva2U9Im5vbmUiIHN0cm9rZS13aWR0aD0iMSIgZmlsbD0ibm9uZSIgZmlsbC1ydWxlPSJldmVub2RkIj4KICAgICAgICA8ZyB0cmFuc2Zvcm09InRyYW5zbGF0ZSgtMTAxMC4wMDAwMDAsIC0yOTYuMDAwMDAwKSIgaWQ9InNwZWxsaW5nX3NxdWlnZ2xlIj4KICAgICAgICAgICAgPGcgdHJhbnNmb3JtPSJ0cmFuc2xhdGUoMTAxMC4wMDAwMDAsIDI5Ni4wMDAwMDApIj4KICAgICAgICAgICAgICAgIDxwYXRoIGQ9Ik0wLDMgQzEuMjUsMyAxLjI1LDEgMi41LDEgQzMuNzUsMSAzLjc1LDMgNSwzIiBpZD0iUGF0aCIgc3Ryb2tlPSIjRUIwMDAwIiBzdHJva2Utd2lkdGg9IjEiPjwvcGF0aD4KICAgICAgICAgICAgICAgIDxyZWN0IGlkPSJSZWN0YW5nbGUiIHg9IjAiIHk9IjAiIHdpZHRoPSI1IiBoZWlnaHQ9IjQiPjwvcmVjdD4KICAgICAgICAgICAgPC9nPgogICAgICAgIDwvZz4KICAgIDwvZz4KPC9zdmc+&#39;)); border-bottom: 1px solid transparent; font-family: Calibri, Calibri_EmbeddedFont, Calibri_MSFontService, sans-serif; font-variant-ligatures: none; text-align: left; background-color: rgb(255, 255, 255);&quot; class=&quot;NormalTextRun SpellingErrorV2Themed SCXW11041752 BCX0&quot;&gt;id&lt;/span&gt;&lt;/b&gt;" style="text;html=1;strokeColor=none;fillColor=none;align=center;verticalAlign=middle;whiteSpace=wrap;rounded=0;fontSize=20;fontFamily=Architects Daughter;" parent="1" vertex="1">
          <mxGeometry x="273.5" y="-1000" width="193" height="50" as="geometry" />
        </mxCell>
        <mxCell id="f91O2NCgC9oTGEupG2Yg-30" value=" &lt;font style=&quot;font-size: 26px;&quot;&gt;&lt;span style=&quot;margin: 0px; padding: 0px; user-select: text; -webkit-user-drag: none; -webkit-tap-highlight-color: transparent; background-repeat: repeat-x; background-position: left bottom; background-image: var(--urlSpellingErrorV2, url(&#39;data:image/svg+xml;base64,PD94bWwgdmVyc2lvbj0iMS4wIiBlbmNvZGluZz0iVVRGLTgiPz4KPHN2ZyB3aWR0aD0iNXB4IiBoZWlnaHQ9IjRweCIgdmlld0JveD0iMCAwIDUgNCIgdmVyc2lvbj0iMS4xIiB4bWxucz0iaHR0cDovL3d3dy53My5vcmcvMjAwMC9zdmciIHhtbG5zOnhsaW5rPSJodHRwOi8vd3d3LnczLm9yZy8xOTk5L3hsaW5rIj4KICAgIDwhLS0gR2VuZXJhdG9yOiBTa2V0Y2ggNTYuMiAoODE2NzIpIC0gaHR0cHM6Ly9za2V0Y2guY29tIC0tPgogICAgPHRpdGxlPnNwZWxsaW5nX3NxdWlnZ2xlPC90aXRsZT4KICAgIDxkZXNjPkNyZWF0ZWQgd2l0aCBTa2V0Y2guPC9kZXNjPgogICAgPGcgaWQ9IkZsYWdzIiBzdHJva2U9Im5vbmUiIHN0cm9rZS13aWR0aD0iMSIgZmlsbD0ibm9uZSIgZmlsbC1ydWxlPSJldmVub2RkIj4KICAgICAgICA8ZyB0cmFuc2Zvcm09InRyYW5zbGF0ZSgtMTAxMC4wMDAwMDAsIC0yOTYuMDAwMDAwKSIgaWQ9InNwZWxsaW5nX3NxdWlnZ2xlIj4KICAgICAgICAgICAgPGcgdHJhbnNmb3JtPSJ0cmFuc2xhdGUoMTAxMC4wMDAwMDAsIDI5Ni4wMDAwMDApIj4KICAgICAgICAgICAgICAgIDxwYXRoIGQ9Ik0wLDMgQzEuMjUsMyAxLjI1LDEgMi41LDEgQzMuNzUsMSAzLjc1LDMgNSwzIiBpZD0iUGF0aCIgc3Ryb2tlPSIjRUIwMDAwIiBzdHJva2Utd2lkdGg9IjEiPjwvcGF0aD4KICAgICAgICAgICAgICAgIDxyZWN0IGlkPSJSZWN0YW5nbGUiIHg9IjAiIHk9IjAiIHdpZHRoPSI1IiBoZWlnaHQ9IjQiPjwvcmVjdD4KICAgICAgICAgICAgPC9nPgogICAgICAgIDwvZz4KICAgIDwvZz4KPC9zdmc+&#39;)); border-bottom: 1px solid transparent; font-family: Calibri, Calibri_EmbeddedFont, Calibri_MSFontService, sans-serif; font-variant-ligatures: none; text-align: left; background-color: rgb(255, 255, 255);&quot; class=&quot;NormalTextRun SpellingErrorV2Themed SCXW11041752 BCX0&quot;&gt;reserv&lt;/span&gt;&lt;span style=&quot;margin: 0px; padding: 0px; user-select: text; -webkit-user-drag: none; -webkit-tap-highlight-color: transparent; background-repeat: repeat-x; background-position: left bottom; background-image: var(--urlSpellingErrorV2, url(&#39;data:image/svg+xml;base64,PD94bWwgdmVyc2lvbj0iMS4wIiBlbmNvZGluZz0iVVRGLTgiPz4KPHN2ZyB3aWR0aD0iNXB4IiBoZWlnaHQ9IjRweCIgdmlld0JveD0iMCAwIDUgNCIgdmVyc2lvbj0iMS4xIiB4bWxucz0iaHR0cDovL3d3dy53My5vcmcvMjAwMC9zdmciIHhtbG5zOnhsaW5rPSJodHRwOi8vd3d3LnczLm9yZy8xOTk5L3hsaW5rIj4KICAgIDwhLS0gR2VuZXJhdG9yOiBTa2V0Y2ggNTYuMiAoODE2NzIpIC0gaHR0cHM6Ly9za2V0Y2guY29tIC0tPgogICAgPHRpdGxlPnNwZWxsaW5nX3NxdWlnZ2xlPC90aXRsZT4KICAgIDxkZXNjPkNyZWF0ZWQgd2l0aCBTa2V0Y2guPC9kZXNjPgogICAgPGcgaWQ9IkZsYWdzIiBzdHJva2U9Im5vbmUiIHN0cm9rZS13aWR0aD0iMSIgZmlsbD0ibm9uZSIgZmlsbC1ydWxlPSJldmVub2RkIj4KICAgICAgICA8ZyB0cmFuc2Zvcm09InRyYW5zbGF0ZSgtMTAxMC4wMDAwMDAsIC0yOTYuMDAwMDAwKSIgaWQ9InNwZWxsaW5nX3NxdWlnZ2xlIj4KICAgICAgICAgICAgPGcgdHJhbnNmb3JtPSJ0cmFuc2xhdGUoMTAxMC4wMDAwMDAsIDI5Ni4wMDAwMDApIj4KICAgICAgICAgICAgICAgIDxwYXRoIGQ9Ik0wLDMgQzEuMjUsMyAxLjI1LDEgMi41LDEgQzMuNzUsMSAzLjc1LDMgNSwzIiBpZD0iUGF0aCIgc3Ryb2tlPSIjRUIwMDAwIiBzdHJva2Utd2lkdGg9IjEiPjwvcGF0aD4KICAgICAgICAgICAgICAgIDxyZWN0IGlkPSJSZWN0YW5nbGUiIHg9IjAiIHk9IjAiIHdpZHRoPSI1IiBoZWlnaHQ9IjQiPjwvcmVjdD4KICAgICAgICAgICAgPC9nPgogICAgICAgIDwvZz4KICAgIDwvZz4KPC9zdmc+&#39;)); border-bottom: 1px solid transparent; font-family: Calibri, Calibri_EmbeddedFont, Calibri_MSFontService, sans-serif; font-variant-ligatures: none; text-align: left; background-color: rgb(255, 255, 255);&quot; class=&quot;NormalTextRun SpellingErrorV2Themed SCXW11041752 BCX0&quot;&gt;ation&lt;/span&gt;&lt;span style=&quot;margin: 0px; padding: 0px; user-select: text; -webkit-user-drag: none; -webkit-tap-highlight-color: transparent; background-repeat: repeat-x; background-position: left bottom; background-image: var(--urlSpellingErrorV2, url(&#39;data:image/svg+xml;base64,PD94bWwgdmVyc2lvbj0iMS4wIiBlbmNvZGluZz0iVVRGLTgiPz4KPHN2ZyB3aWR0aD0iNXB4IiBoZWlnaHQ9IjRweCIgdmlld0JveD0iMCAwIDUgNCIgdmVyc2lvbj0iMS4xIiB4bWxucz0iaHR0cDovL3d3dy53My5vcmcvMjAwMC9zdmciIHhtbG5zOnhsaW5rPSJodHRwOi8vd3d3LnczLm9yZy8xOTk5L3hsaW5rIj4KICAgIDwhLS0gR2VuZXJhdG9yOiBTa2V0Y2ggNTYuMiAoODE2NzIpIC0gaHR0cHM6Ly9za2V0Y2guY29tIC0tPgogICAgPHRpdGxlPnNwZWxsaW5nX3NxdWlnZ2xlPC90aXRsZT4KICAgIDxkZXNjPkNyZWF0ZWQgd2l0aCBTa2V0Y2guPC9kZXNjPgogICAgPGcgaWQ9IkZsYWdzIiBzdHJva2U9Im5vbmUiIHN0cm9rZS13aWR0aD0iMSIgZmlsbD0ibm9uZSIgZmlsbC1ydWxlPSJldmVub2RkIj4KICAgICAgICA8ZyB0cmFuc2Zvcm09InRyYW5zbGF0ZSgtMTAxMC4wMDAwMDAsIC0yOTYuMDAwMDAwKSIgaWQ9InNwZWxsaW5nX3NxdWlnZ2xlIj4KICAgICAgICAgICAgPGcgdHJhbnNmb3JtPSJ0cmFuc2xhdGUoMTAxMC4wMDAwMDAsIDI5Ni4wMDAwMDApIj4KICAgICAgICAgICAgICAgIDxwYXRoIGQ9Ik0wLDMgQzEuMjUsMyAxLjI1LDEgMi41LDEgQzMuNzUsMSAzLjc1LDMgNSwzIiBpZD0iUGF0aCIgc3Ryb2tlPSIjRUIwMDAwIiBzdHJva2Utd2lkdGg9IjEiPjwvcGF0aD4KICAgICAgICAgICAgICAgIDxyZWN0IGlkPSJSZWN0YW5nbGUiIHg9IjAiIHk9IjAiIHdpZHRoPSI1IiBoZWlnaHQ9IjQiPjwvcmVjdD4KICAgICAgICAgICAgPC9nPgogICAgICAgIDwvZz4KICAgIDwvZz4KPC9zdmc+&#39;)); border-bottom: 1px solid transparent; font-family: Calibri, Calibri_EmbeddedFont, Calibri_MSFontService, sans-serif; font-variant-ligatures: none; text-align: left; background-color: rgb(255, 255, 255);&quot; class=&quot;NormalTextRun SpellingErrorV2Themed SCXW11041752 BCX0&quot;&gt;_pr&lt;/span&gt;&lt;span style=&quot;margin: 0px; padding: 0px; user-select: text; -webkit-user-drag: none; -webkit-tap-highlight-color: transparent; background-repeat: repeat-x; background-position: left bottom; background-image: var(--urlSpellingErrorV2, url(&#39;data:image/svg+xml;base64,PD94bWwgdmVyc2lvbj0iMS4wIiBlbmNvZGluZz0iVVRGLTgiPz4KPHN2ZyB3aWR0aD0iNXB4IiBoZWlnaHQ9IjRweCIgdmlld0JveD0iMCAwIDUgNCIgdmVyc2lvbj0iMS4xIiB4bWxucz0iaHR0cDovL3d3dy53My5vcmcvMjAwMC9zdmciIHhtbG5zOnhsaW5rPSJodHRwOi8vd3d3LnczLm9yZy8xOTk5L3hsaW5rIj4KICAgIDwhLS0gR2VuZXJhdG9yOiBTa2V0Y2ggNTYuMiAoODE2NzIpIC0gaHR0cHM6Ly9za2V0Y2guY29tIC0tPgogICAgPHRpdGxlPnNwZWxsaW5nX3NxdWlnZ2xlPC90aXRsZT4KICAgIDxkZXNjPkNyZWF0ZWQgd2l0aCBTa2V0Y2guPC9kZXNjPgogICAgPGcgaWQ9IkZsYWdzIiBzdHJva2U9Im5vbmUiIHN0cm9rZS13aWR0aD0iMSIgZmlsbD0ibm9uZSIgZmlsbC1ydWxlPSJldmVub2RkIj4KICAgICAgICA8ZyB0cmFuc2Zvcm09InRyYW5zbGF0ZSgtMTAxMC4wMDAwMDAsIC0yOTYuMDAwMDAwKSIgaWQ9InNwZWxsaW5nX3NxdWlnZ2xlIj4KICAgICAgICAgICAgPGcgdHJhbnNmb3JtPSJ0cmFuc2xhdGUoMTAxMC4wMDAwMDAsIDI5Ni4wMDAwMDApIj4KICAgICAgICAgICAgICAgIDxwYXRoIGQ9Ik0wLDMgQzEuMjUsMyAxLjI1LDEgMi41LDEgQzMuNzUsMSAzLjc1LDMgNSwzIiBpZD0iUGF0aCIgc3Ryb2tlPSIjRUIwMDAwIiBzdHJva2Utd2lkdGg9IjEiPjwvcGF0aD4KICAgICAgICAgICAgICAgIDxyZWN0IGlkPSJSZWN0YW5nbGUiIHg9IjAiIHk9IjAiIHdpZHRoPSI1IiBoZWlnaHQ9IjQiPjwvcmVjdD4KICAgICAgICAgICAgPC9nPgogICAgICAgIDwvZz4KICAgIDwvZz4KPC9zdmc+&#39;)); border-bottom: 1px solid transparent; font-family: Calibri, Calibri_EmbeddedFont, Calibri_MSFontService, sans-serif; font-variant-ligatures: none; text-align: left; background-color: rgb(255, 255, 255);&quot; class=&quot;NormalTextRun SpellingErrorV2Themed SCXW11041752 BCX0&quot;&gt;ix&lt;/span&gt;&lt;/font&gt;" style="text;html=1;strokeColor=none;fillColor=none;align=center;verticalAlign=middle;whiteSpace=wrap;rounded=0;fontSize=20;fontFamily=Architects Daughter;" parent="1" vertex="1">
          <mxGeometry x="320" y="-870" width="170" height="50" as="geometry" />
        </mxCell>
        <mxCell id="f91O2NCgC9oTGEupG2Yg-31" value="&lt;font style=&quot;font-size: 25px;&quot;&gt;eta&lt;span style=&quot;margin: 0px; padding: 0px; user-select: text; -webkit-user-drag: none; -webkit-tap-highlight-color: transparent; background-color: var(--clrSpellingErrorHighlightBg, #ffe5e5); background-repeat: repeat-x; background-position: left bottom; background-image: var(--urlSpellingErrorV2, url(&#39;data:image/svg+xml;base64,PD94bWwgdmVyc2lvbj0iMS4wIiBlbmNvZGluZz0iVVRGLTgiPz4KPHN2ZyB3aWR0aD0iNXB4IiBoZWlnaHQ9IjRweCIgdmlld0JveD0iMCAwIDUgNCIgdmVyc2lvbj0iMS4xIiB4bWxucz0iaHR0cDovL3d3dy53My5vcmcvMjAwMC9zdmciIHhtbG5zOnhsaW5rPSJodHRwOi8vd3d3LnczLm9yZy8xOTk5L3hsaW5rIj4KICAgIDwhLS0gR2VuZXJhdG9yOiBTa2V0Y2ggNTYuMiAoODE2NzIpIC0gaHR0cHM6Ly9za2V0Y2guY29tIC0tPgogICAgPHRpdGxlPnNwZWxsaW5nX3NxdWlnZ2xlPC90aXRsZT4KICAgIDxkZXNjPkNyZWF0ZWQgd2l0aCBTa2V0Y2guPC9kZXNjPgogICAgPGcgaWQ9IkZsYWdzIiBzdHJva2U9Im5vbmUiIHN0cm9rZS13aWR0aD0iMSIgZmlsbD0ibm9uZSIgZmlsbC1ydWxlPSJldmVub2RkIj4KICAgICAgICA8ZyB0cmFuc2Zvcm09InRyYW5zbGF0ZSgtMTAxMC4wMDAwMDAsIC0yOTYuMDAwMDAwKSIgaWQ9InNwZWxsaW5nX3NxdWlnZ2xlIj4KICAgICAgICAgICAgPGcgdHJhbnNmb3JtPSJ0cmFuc2xhdGUoMTAxMC4wMDAwMDAsIDI5Ni4wMDAwMDApIj4KICAgICAgICAgICAgICAgIDxwYXRoIGQ9Ik0wLDMgQzEuMjUsMyAxLjI1LDEgMi41LDEgQzMuNzUsMSAzLjc1LDMgNSwzIiBpZD0iUGF0aCIgc3Ryb2tlPSIjRUIwMDAwIiBzdHJva2Utd2lkdGg9IjEiPjwvcGF0aD4KICAgICAgICAgICAgICAgIDxyZWN0IGlkPSJSZWN0YW5nbGUiIHg9IjAiIHk9IjAiIHdpZHRoPSI1IiBoZWlnaHQ9IjQiPjwvcmVjdD4KICAgICAgICAgICAgPC9nPgogICAgICAgIDwvZz4KICAgIDwvZz4KPC9zdmc+&#39;)); border-bottom: 1px solid transparent; font-family: Calibri, Calibri_EmbeddedFont, Calibri_MSFontService, sans-serif; font-variant-ligatures: none; font-weight: 700; text-align: left;&quot; class=&quot;NormalTextRun SpellingErrorV2Themed SpellingErrorHighlight SCXW227620897 BCX0&quot;&gt;t_r&lt;/span&gt;&lt;span style=&quot;margin: 0px; padding: 0px; user-select: text; -webkit-user-drag: none; -webkit-tap-highlight-color: transparent; background-color: var(--clrSpellingErrorHighlightBg, #ffe5e5); background-repeat: repeat-x; background-position: left bottom; background-image: var(--urlSpellingErrorV2, url(&#39;data:image/svg+xml;base64,PD94bWwgdmVyc2lvbj0iMS4wIiBlbmNvZGluZz0iVVRGLTgiPz4KPHN2ZyB3aWR0aD0iNXB4IiBoZWlnaHQ9IjRweCIgdmlld0JveD0iMCAwIDUgNCIgdmVyc2lvbj0iMS4xIiB4bWxucz0iaHR0cDovL3d3dy53My5vcmcvMjAwMC9zdmciIHhtbG5zOnhsaW5rPSJodHRwOi8vd3d3LnczLm9yZy8xOTk5L3hsaW5rIj4KICAgIDwhLS0gR2VuZXJhdG9yOiBTa2V0Y2ggNTYuMiAoODE2NzIpIC0gaHR0cHM6Ly9za2V0Y2guY29tIC0tPgogICAgPHRpdGxlPnNwZWxsaW5nX3NxdWlnZ2xlPC90aXRsZT4KICAgIDxkZXNjPkNyZWF0ZWQgd2l0aCBTa2V0Y2guPC9kZXNjPgogICAgPGcgaWQ9IkZsYWdzIiBzdHJva2U9Im5vbmUiIHN0cm9rZS13aWR0aD0iMSIgZmlsbD0ibm9uZSIgZmlsbC1ydWxlPSJldmVub2RkIj4KICAgICAgICA8ZyB0cmFuc2Zvcm09InRyYW5zbGF0ZSgtMTAxMC4wMDAwMDAsIC0yOTYuMDAwMDAwKSIgaWQ9InNwZWxsaW5nX3NxdWlnZ2xlIj4KICAgICAgICAgICAgPGcgdHJhbnNmb3JtPSJ0cmFuc2xhdGUoMTAxMC4wMDAwMDAsIDI5Ni4wMDAwMDApIj4KICAgICAgICAgICAgICAgIDxwYXRoIGQ9Ik0wLDMgQzEuMjUsMyAxLjI1LDEgMi41LDEgQzMuNzUsMSAzLjc1LDMgNSwzIiBpZD0iUGF0aCIgc3Ryb2tlPSIjRUIwMDAwIiBzdHJva2Utd2lkdGg9IjEiPjwvcGF0aD4KICAgICAgICAgICAgICAgIDxyZWN0IGlkPSJSZWN0YW5nbGUiIHg9IjAiIHk9IjAiIHdpZHRoPSI1IiBoZWlnaHQ9IjQiPjwvcmVjdD4KICAgICAgICAgICAgPC9nPgogICAgICAgIDwvZz4KICAgIDwvZz4KPC9zdmc+&#39;)); border-bottom: 1px solid transparent; font-family: Calibri, Calibri_EmbeddedFont, Calibri_MSFontService, sans-serif; font-variant-ligatures: none; font-weight: 700; text-align: left;&quot; class=&quot;NormalTextRun SpellingErrorV2Themed SpellingErrorHighlight SCXW227620897 BCX0&quot;&gt;eserv&lt;/span&gt;&lt;span style=&quot;margin: 0px; padding: 0px; user-select: text; -webkit-user-drag: none; -webkit-tap-highlight-color: transparent; background-color: var(--clrSpellingErrorHighlightBg, #ffe5e5); background-repeat: repeat-x; background-position: left bottom; background-image: var(--urlSpellingErrorV2, url(&#39;data:image/svg+xml;base64,PD94bWwgdmVyc2lvbj0iMS4wIiBlbmNvZGluZz0iVVRGLTgiPz4KPHN2ZyB3aWR0aD0iNXB4IiBoZWlnaHQ9IjRweCIgdmlld0JveD0iMCAwIDUgNCIgdmVyc2lvbj0iMS4xIiB4bWxucz0iaHR0cDovL3d3dy53My5vcmcvMjAwMC9zdmciIHhtbG5zOnhsaW5rPSJodHRwOi8vd3d3LnczLm9yZy8xOTk5L3hsaW5rIj4KICAgIDwhLS0gR2VuZXJhdG9yOiBTa2V0Y2ggNTYuMiAoODE2NzIpIC0gaHR0cHM6Ly9za2V0Y2guY29tIC0tPgogICAgPHRpdGxlPnNwZWxsaW5nX3NxdWlnZ2xlPC90aXRsZT4KICAgIDxkZXNjPkNyZWF0ZWQgd2l0aCBTa2V0Y2guPC9kZXNjPgogICAgPGcgaWQ9IkZsYWdzIiBzdHJva2U9Im5vbmUiIHN0cm9rZS13aWR0aD0iMSIgZmlsbD0ibm9uZSIgZmlsbC1ydWxlPSJldmVub2RkIj4KICAgICAgICA8ZyB0cmFuc2Zvcm09InRyYW5zbGF0ZSgtMTAxMC4wMDAwMDAsIC0yOTYuMDAwMDAwKSIgaWQ9InNwZWxsaW5nX3NxdWlnZ2xlIj4KICAgICAgICAgICAgPGcgdHJhbnNmb3JtPSJ0cmFuc2xhdGUoMTAxMC4wMDAwMDAsIDI5Ni4wMDAwMDApIj4KICAgICAgICAgICAgICAgIDxwYXRoIGQ9Ik0wLDMgQzEuMjUsMyAxLjI1LDEgMi41LDEgQzMuNzUsMSAzLjc1LDMgNSwzIiBpZD0iUGF0aCIgc3Ryb2tlPSIjRUIwMDAwIiBzdHJva2Utd2lkdGg9IjEiPjwvcGF0aD4KICAgICAgICAgICAgICAgIDxyZWN0IGlkPSJSZWN0YW5nbGUiIHg9IjAiIHk9IjAiIHdpZHRoPSI1IiBoZWlnaHQ9IjQiPjwvcmVjdD4KICAgICAgICAgICAgPC9nPgogICAgICAgIDwvZz4KICAgIDwvZz4KPC9zdmc+&#39;)); border-bottom: 1px solid transparent; font-family: Calibri, Calibri_EmbeddedFont, Calibri_MSFontService, sans-serif; font-variant-ligatures: none; font-weight: 700; text-align: left;&quot; class=&quot;NormalTextRun SpellingErrorV2Themed SpellingErrorHighlight SCXW227620897 BCX0&quot;&gt;at&lt;/span&gt;&lt;span style=&quot;margin: 0px; padding: 0px; user-select: text; -webkit-user-drag: none; -webkit-tap-highlight-color: transparent; background-color: var(--clrSpellingErrorHighlightBg, #ffe5e5); background-repeat: repeat-x; background-position: left bottom; background-image: var(--urlSpellingErrorV2, url(&#39;data:image/svg+xml;base64,PD94bWwgdmVyc2lvbj0iMS4wIiBlbmNvZGluZz0iVVRGLTgiPz4KPHN2ZyB3aWR0aD0iNXB4IiBoZWlnaHQ9IjRweCIgdmlld0JveD0iMCAwIDUgNCIgdmVyc2lvbj0iMS4xIiB4bWxucz0iaHR0cDovL3d3dy53My5vcmcvMjAwMC9zdmciIHhtbG5zOnhsaW5rPSJodHRwOi8vd3d3LnczLm9yZy8xOTk5L3hsaW5rIj4KICAgIDwhLS0gR2VuZXJhdG9yOiBTa2V0Y2ggNTYuMiAoODE2NzIpIC0gaHR0cHM6Ly9za2V0Y2guY29tIC0tPgogICAgPHRpdGxlPnNwZWxsaW5nX3NxdWlnZ2xlPC90aXRsZT4KICAgIDxkZXNjPkNyZWF0ZWQgd2l0aCBTa2V0Y2guPC9kZXNjPgogICAgPGcgaWQ9IkZsYWdzIiBzdHJva2U9Im5vbmUiIHN0cm9rZS13aWR0aD0iMSIgZmlsbD0ibm9uZSIgZmlsbC1ydWxlPSJldmVub2RkIj4KICAgICAgICA8ZyB0cmFuc2Zvcm09InRyYW5zbGF0ZSgtMTAxMC4wMDAwMDAsIC0yOTYuMDAwMDAwKSIgaWQ9InNwZWxsaW5nX3NxdWlnZ2xlIj4KICAgICAgICAgICAgPGcgdHJhbnNmb3JtPSJ0cmFuc2xhdGUoMTAxMC4wMDAwMDAsIDI5Ni4wMDAwMDApIj4KICAgICAgICAgICAgICAgIDxwYXRoIGQ9Ik0wLDMgQzEuMjUsMyAxLjI1LDEgMi41LDEgQzMuNzUsMSAzLjc1LDMgNSwzIiBpZD0iUGF0aCIgc3Ryb2tlPSIjRUIwMDAwIiBzdHJva2Utd2lkdGg9IjEiPjwvcGF0aD4KICAgICAgICAgICAgICAgIDxyZWN0IGlkPSJSZWN0YW5nbGUiIHg9IjAiIHk9IjAiIHdpZHRoPSI1IiBoZWlnaHQ9IjQiPjwvcmVjdD4KICAgICAgICAgICAgPC9nPgogICAgICAgIDwvZz4KICAgIDwvZz4KPC9zdmc+&#39;)); border-bottom: 1px solid transparent; font-family: Calibri, Calibri_EmbeddedFont, Calibri_MSFontService, sans-serif; font-variant-ligatures: none; font-weight: 700; text-align: left;&quot; class=&quot;NormalTextRun SpellingErrorV2Themed SpellingErrorHighlight SCXW227620897 BCX0&quot;&gt;ion&lt;/span&gt;&lt;/font&gt;" style="text;html=1;strokeColor=none;fillColor=none;align=center;verticalAlign=middle;whiteSpace=wrap;rounded=0;fontSize=20;fontFamily=Architects Daughter;" parent="1" vertex="1">
          <mxGeometry x="320" y="-790" width="180" height="50" as="geometry" />
        </mxCell>
        <mxCell id="f91O2NCgC9oTGEupG2Yg-34" value="" style="rounded=1;whiteSpace=wrap;html=1;sketch=1;hachureGap=4;jiggle=2;curveFitting=1;fontFamily=Architects Daughter;fontSource=https%3A%2F%2Ffonts.googleapis.com%2Fcss%3Ffamily%3DArchitects%2BDaughter;fontSize=20;" parent="1" vertex="1">
          <mxGeometry x="-400" y="-1130" width="310" height="419" as="geometry" />
        </mxCell>
        <mxCell id="f91O2NCgC9oTGEupG2Yg-36" value="&lt;b&gt;&lt;font style=&quot;font-size: 25px;&quot;&gt;id_chambre&lt;/font&gt;&lt;/b&gt;" style="text;html=1;strokeColor=none;fillColor=none;align=center;verticalAlign=middle;whiteSpace=wrap;rounded=0;fontSize=20;fontFamily=Architects Daughter;" parent="1" vertex="1">
          <mxGeometry x="-440" y="-1089" width="290" height="60" as="geometry" />
        </mxCell>
        <mxCell id="f91O2NCgC9oTGEupG2Yg-39" value="&lt;div style=&quot;text-align: left; font-size: 27px;&quot;&gt;&lt;font style=&quot;font-size: 27px;&quot; face=&quot;WordVisi_MSFontService, Calibri, Calibri_EmbeddedFont, Calibri_MSFontService, sans-serif&quot;&gt;&lt;b style=&quot;&quot;&gt;prix&lt;/b&gt;&lt;/font&gt;&lt;/div&gt;&lt;span style=&quot;accent-color: auto; place-content: normal; place-items: normal; place-self: auto; alignment-baseline: auto; animation: 0s ease 0s 1 normal none running none; animation-composition: replace; app-region: none; appearance: none; aspect-ratio: auto; backdrop-filter: none; backface-visibility: visible; background: none 0% 0% / auto repeat scroll padding-box border-box rgba(0, 0, 0, 0); background-blend-mode: normal; baseline-shift: 0px; baseline-source: auto; border-image: none 100% / 1 / 0 stretch; border-color: rgb(0, 0, 0); border-collapse: separate; border-end-end-radius: 0px; border-end-start-radius: 0px; border-width: 0px; border-style: none; border-spacing: 0px; border-start-end-radius: 0px; border-start-start-radius: 0px; border-radius: 0px; inset: auto; box-shadow: none; box-sizing: content-box; break-after: auto; break-before: auto; break-inside: auto; buffered-rendering: auto; caption-side: top; caret-color: rgb(0, 0, 0); clear: none; clip: auto; clip-path: none; clip-rule: nonzero; color-interpolation: srgb; color-interpolation-filters: linearrgb; color-rendering: auto; color-scheme: normal; columns: auto; column-fill: balance; gap: normal; column-rule: 0px rgb(0, 0, 0); column-span: none; contain: none; contain-intrinsic-block-size: none; contain-intrinsic-size: none; contain-intrinsic-inline-size: none; container: none; content: normal; content-visibility: visible; counter-increment: none; counter-reset: none; counter-set: none; cursor: text; cx: 0px; cy: 0px; d: none; direction: ltr; display: inline; dominant-baseline: auto; empty-cells: show; fill: rgb(0, 0, 0); fill-opacity: 1; fill-rule: nonzero; filter: none; flex: 0 1 auto; flex-flow: row; float: none; flood-color: rgb(0, 0, 0); flood-opacity: 1; font-family: WordVisi_MSFontService, Calibri, Calibri_EmbeddedFont, Calibri_MSFontService, sans-serif; font-feature-settings: normal; font-kerning: none; font-optical-sizing: auto; font-palette: normal; font-stretch: 100%; font-synthesis: weight style small-caps; font-variant-ligatures: no-common-ligatures no-discretionary-ligatures no-historical-ligatures no-contextual; font-variant-numeric: normal; font-variant-east-asian: normal; font-variant-alternates: normal; font-variant-position: normal; font-variation-settings: normal; font-weight: 700; forced-color-adjust: auto; grid-area: auto; grid: none; height: auto; hyphenate-character: auto; hyphenate-limit-chars: auto; hyphens: manual; image-orientation: from-image; image-rendering: auto; initial-letter: normal; inline-size: auto; inset-block: auto; inset-inline: auto; isolation: auto; lighting-color: rgb(255, 255, 255); line-break: auto; line-height: 19.425px; list-style: outside none disc; margin: 0px; marker: none; mask-type: luminance; math-depth: 0; math-shift: normal; math-style: normal; max-height: none; max-width: none; min-height: 0px; min-width: 0px; mix-blend-mode: normal; object-fit: fill; object-position: 50% 50%; object-view-box: none; offset: auto; opacity: 1; order: 0; outline: rgb(0, 0, 0) none 0px; outline-offset: 0px; overflow: visible; overflow-anchor: auto; overflow-clip-margin: 0px; overflow-wrap: break-word; overlay: none; overscroll-behavior-block: auto; overscroll-behavior-inline: auto; overscroll-behavior: auto; padding: 0px; page: auto; paint-order: normal; perspective: none; perspective-origin: 0px 0px; pointer-events: auto; position: static; quotes: auto; r: 0px; resize: none; rotate: none; ruby-position: over; rx: auto; ry: auto; scale: none; scroll-behavior: auto; scroll-margin-block: 0px; scroll-margin: 0px; scroll-margin-inline: 0px; scroll-padding-block: auto; scroll-padding: auto; scroll-padding-inline: auto; scroll-snap-align: none; scroll-snap-stop: normal; scroll-snap-type: none; scroll-timeline: none; scrollbar-gutter: auto; shape-image-threshold: 0; shape-margin: 0px; shape-outside: none; shape-rendering: auto; speak: normal; stop-color: rgb(0, 0, 0); stop-opacity: 1; stroke: none; stroke-dasharray: none; stroke-dashoffset: 0px; stroke-linecap: butt; stroke-linejoin: miter; stroke-miterlimit: 4; stroke-opacity: 1; stroke-width: 1px; tab-size: 8; table-layout: auto; text-align: left; text-align-last: auto; text-anchor: start; text-combine-upright: none; text-decoration-style: solid; text-decoration-color: rgb(0, 0, 0); text-decoration-skip-ink: auto; text-emphasis: none rgb(0, 0, 0); text-emphasis-position: over; text-orientation: mixed; text-overflow: clip; text-rendering: auto; text-shadow: none; text-size-adjust: auto; text-underline-offset: auto; text-underline-position: auto; timeline-scope: none; touch-action: auto; transform: none; transform-box: view-box; transform-origin: 0px 0px; transform-style: flat; transition: all 0s ease 0s; translate: none; unicode-bidi: normal; user-select: text; vector-effect: none; vertical-align: baseline; view-timeline: none 0px; view-transition-name: none; visibility: visible; border-block-end: 0px none rgb(0, 0, 0); border-block-start: 0px none rgb(0, 0, 0); border-inline-end: 0px none rgb(0, 0, 0); -webkit-border-image: none; border-inline-start: 0px none rgb(0, 0, 0); -webkit-box-align: stretch; -webkit-box-decoration-break: slice; -webkit-box-direction: normal; -webkit-box-flex: 0; -webkit-box-ordinal-group: 1; -webkit-box-orient: horizontal; -webkit-box-pack: start; -webkit-font-smoothing: auto; -webkit-line-break: auto; -webkit-locale: &amp;quot;fr-FR&amp;quot;; block-size: auto; margin-block: 0px; margin-inline: 0px; -webkit-mask-box-image-source: none; -webkit-mask-box-image-slice: 0 fill; -webkit-mask-box-image-width: auto; -webkit-mask-box-image-outset: 0; -webkit-mask-box-image-repeat: stretch; mask: none 0% 0% / auto repeat source-over; max-block-size: none; max-inline-size: none; min-block-size: 0px; min-inline-size: 0px; padding-block: 0px; padding-inline: 0px; -webkit-print-color-adjust: economy; -webkit-rtl-ordering: logical; -webkit-ruby-position: before; -webkit-tap-highlight-color: rgba(0, 0, 0, 0); -webkit-text-combine: none; -webkit-text-fill-color: rgb(0, 0, 0); -webkit-text-orientation: vertical-right; -webkit-text-security: none; -webkit-text-stroke-color: rgb(0, 0, 0); -webkit-user-drag: none; -webkit-user-modify: read-only; -webkit-writing-mode: horizontal-tb; width: auto; will-change: auto; word-break: normal; writing-mode: horizontal-tb; x: 0px; y: 0px; z-index: auto; zoom: 1; font-size: 27px;&quot; class=&quot;TextRun SCXW98998741 BCX0&quot; lang=&quot;FR-FR&quot; data-contrast=&quot;auto&quot;&gt;&lt;/span&gt;" style="text;html=1;strokeColor=none;fillColor=none;align=center;verticalAlign=middle;whiteSpace=wrap;rounded=0;fontSize=20;fontFamily=Architects Daughter;" parent="1" vertex="1">
          <mxGeometry x="-410" y="-790" width="200" height="50" as="geometry" />
        </mxCell>
        <mxCell id="f91O2NCgC9oTGEupG2Yg-44" value="" style="rounded=1;whiteSpace=wrap;html=1;sketch=1;hachureGap=4;jiggle=2;curveFitting=1;fontFamily=Architects Daughter;fontSource=https%3A%2F%2Ffonts.googleapis.com%2Fcss%3Ffamily%3DArchitects%2BDaughter;fontSize=20;" parent="1" vertex="1">
          <mxGeometry x="1090" y="-1230" width="280" height="580" as="geometry" />
        </mxCell>
        <mxCell id="f91O2NCgC9oTGEupG2Yg-45" value="&lt;div style=&quot;text-align: left; font-size: 24px;&quot;&gt;&lt;font style=&quot;font-size: 24px;&quot; face=&quot;WordVisi_MSFontService, Calibri, Calibri_EmbeddedFont, Calibri_MSFontService, sans-serif&quot;&gt;&lt;b style=&quot;&quot;&gt;Utilisateur&lt;/b&gt;&lt;/font&gt;&lt;/div&gt;&lt;span style=&quot;accent-color: auto; place-content: normal; place-items: normal; place-self: auto; alignment-baseline: auto; animation: 0s ease 0s 1 normal none running none; animation-composition: replace; app-region: none; appearance: none; aspect-ratio: auto; backdrop-filter: none; backface-visibility: visible; background: none 0% 0% / auto repeat scroll padding-box border-box rgba(0, 0, 0, 0); background-blend-mode: normal; baseline-shift: 0px; baseline-source: auto; border-image: none 100% / 1 / 0 stretch; border-color: rgb(0, 0, 0); border-collapse: separate; border-end-end-radius: 0px; border-end-start-radius: 0px; border-width: 0px; border-style: none; border-spacing: 0px; border-start-end-radius: 0px; border-start-start-radius: 0px; border-radius: 0px; inset: auto; box-shadow: none; box-sizing: content-box; break-after: auto; break-before: auto; break-inside: auto; buffered-rendering: auto; caption-side: top; caret-color: rgb(0, 0, 0); clear: none; clip: auto; clip-path: none; clip-rule: nonzero; color-interpolation: srgb; color-interpolation-filters: linearrgb; color-rendering: auto; color-scheme: normal; columns: auto; column-fill: balance; gap: normal; column-rule: 0px rgb(0, 0, 0); column-span: none; contain: none; contain-intrinsic-block-size: none; contain-intrinsic-size: none; contain-intrinsic-inline-size: none; container: none; content: normal; content-visibility: visible; counter-increment: none; counter-reset: none; counter-set: none; cursor: text; cx: 0px; cy: 0px; d: none; direction: ltr; display: inline; dominant-baseline: auto; empty-cells: show; fill: rgb(0, 0, 0); fill-opacity: 1; fill-rule: nonzero; filter: none; flex: 0 1 auto; flex-flow: row; float: none; flood-color: rgb(0, 0, 0); flood-opacity: 1; font-family: WordVisi_MSFontService, Calibri, Calibri_EmbeddedFont, Calibri_MSFontService, sans-serif; font-feature-settings: normal; font-kerning: none; font-optical-sizing: auto; font-palette: normal; font-stretch: 100%; font-synthesis: weight style small-caps; font-variant-ligatures: no-common-ligatures no-discretionary-ligatures no-historical-ligatures no-contextual; font-variant-numeric: normal; font-variant-east-asian: normal; font-variant-alternates: normal; font-variant-position: normal; font-variation-settings: normal; font-weight: 700; forced-color-adjust: auto; grid-area: auto; grid: none; height: auto; hyphenate-character: auto; hyphenate-limit-chars: auto; hyphens: manual; image-orientation: from-image; image-rendering: auto; initial-letter: normal; inline-size: auto; inset-block: auto; inset-inline: auto; isolation: auto; lighting-color: rgb(255, 255, 255); line-break: auto; line-height: 19.425px; list-style: outside none disc; margin: 0px; marker: none; mask-type: luminance; math-depth: 0; math-shift: normal; math-style: normal; max-height: none; max-width: none; min-height: 0px; min-width: 0px; mix-blend-mode: normal; object-fit: fill; object-position: 50% 50%; object-view-box: none; offset: auto; opacity: 1; order: 0; outline: rgb(0, 0, 0) none 0px; outline-offset: 0px; overflow: visible; overflow-anchor: auto; overflow-clip-margin: 0px; overflow-wrap: break-word; overlay: none; overscroll-behavior-block: auto; overscroll-behavior-inline: auto; overscroll-behavior: auto; padding: 0px; page: auto; paint-order: normal; perspective: none; perspective-origin: 0px 0px; pointer-events: auto; position: static; quotes: auto; r: 0px; resize: none; rotate: none; ruby-position: over; rx: auto; ry: auto; scale: none; scroll-behavior: auto; scroll-margin-block: 0px; scroll-margin: 0px; scroll-margin-inline: 0px; scroll-padding-block: auto; scroll-padding: auto; scroll-padding-inline: auto; scroll-snap-align: none; scroll-snap-stop: normal; scroll-snap-type: none; scroll-timeline: none; scrollbar-gutter: auto; shape-image-threshold: 0; shape-margin: 0px; shape-outside: none; shape-rendering: auto; speak: normal; stop-color: rgb(0, 0, 0); stop-opacity: 1; stroke: none; stroke-dasharray: none; stroke-dashoffset: 0px; stroke-linecap: butt; stroke-linejoin: miter; stroke-miterlimit: 4; stroke-opacity: 1; stroke-width: 1px; tab-size: 8; table-layout: auto; text-align: left; text-align-last: auto; text-anchor: start; text-combine-upright: none; text-decoration-style: solid; text-decoration-color: rgb(0, 0, 0); text-decoration-skip-ink: auto; text-emphasis: none rgb(0, 0, 0); text-emphasis-position: over; text-orientation: mixed; text-overflow: clip; text-rendering: auto; text-shadow: none; text-size-adjust: auto; text-underline-offset: auto; text-underline-position: auto; timeline-scope: none; touch-action: auto; transform: none; transform-box: view-box; transform-origin: 0px 0px; transform-style: flat; transition: all 0s ease 0s; translate: none; unicode-bidi: normal; user-select: text; vector-effect: none; vertical-align: baseline; view-timeline: none 0px; view-transition-name: none; visibility: visible; border-block-end: 0px none rgb(0, 0, 0); border-block-start: 0px none rgb(0, 0, 0); border-inline-end: 0px none rgb(0, 0, 0); -webkit-border-image: none; border-inline-start: 0px none rgb(0, 0, 0); -webkit-box-align: stretch; -webkit-box-decoration-break: slice; -webkit-box-direction: normal; -webkit-box-flex: 0; -webkit-box-ordinal-group: 1; -webkit-box-orient: horizontal; -webkit-box-pack: start; -webkit-font-smoothing: auto; -webkit-line-break: auto; -webkit-locale: &amp;quot;fr-FR&amp;quot;; block-size: auto; margin-block: 0px; margin-inline: 0px; -webkit-mask-box-image-source: none; -webkit-mask-box-image-slice: 0 fill; -webkit-mask-box-image-width: auto; -webkit-mask-box-image-outset: 0; -webkit-mask-box-image-repeat: stretch; mask: none 0% 0% / auto repeat source-over; max-block-size: none; max-inline-size: none; min-block-size: 0px; min-inline-size: 0px; padding-block: 0px; padding-inline: 0px; -webkit-print-color-adjust: economy; -webkit-rtl-ordering: logical; -webkit-ruby-position: before; -webkit-tap-highlight-color: rgba(0, 0, 0, 0); -webkit-text-combine: none; -webkit-text-fill-color: rgb(0, 0, 0); -webkit-text-orientation: vertical-right; -webkit-text-security: none; -webkit-text-stroke-color: rgb(0, 0, 0); -webkit-user-drag: none; -webkit-user-modify: read-only; -webkit-writing-mode: horizontal-tb; width: auto; will-change: auto; word-break: normal; writing-mode: horizontal-tb; x: 0px; y: 0px; z-index: auto; zoom: 1; font-size: 24px;&quot; class=&quot;TextRun SCXW222031796 BCX0&quot; lang=&quot;FR-FR&quot; data-contrast=&quot;auto&quot;&gt;&lt;/span&gt;" style="text;html=1;strokeColor=none;fillColor=none;align=center;verticalAlign=middle;whiteSpace=wrap;rounded=0;fontSize=20;fontFamily=Architects Daughter;" parent="1" vertex="1">
          <mxGeometry x="1150" y="-1239" width="170" height="70" as="geometry" />
        </mxCell>
        <mxCell id="Qd1faDFN9bf8OgeO_KBa-7" value="" style="endArrow=none;html=1;rounded=0;entryX=0;entryY=0.5;entryDx=0;entryDy=0;" edge="1" parent="1" target="f91O2NCgC9oTGEupG2Yg-21">
          <mxGeometry width="50" height="50" relative="1" as="geometry">
            <mxPoint x="1080" y="-985" as="sourcePoint" />
            <mxPoint x="490" y="-580" as="targetPoint" />
          </mxGeometry>
        </mxCell>
        <mxCell id="Qd1faDFN9bf8OgeO_KBa-8" value="" style="endArrow=none;html=1;rounded=0;entryX=1.015;entryY=0.281;entryDx=0;entryDy=0;entryPerimeter=0;" edge="1" parent="1" source="Qd1faDFN9bf8OgeO_KBa-28" target="f91O2NCgC9oTGEupG2Yg-34">
          <mxGeometry width="50" height="50" relative="1" as="geometry">
            <mxPoint x="260" y="-1010" as="sourcePoint" />
            <mxPoint x="490" y="-580" as="targetPoint" />
          </mxGeometry>
        </mxCell>
        <mxCell id="Qd1faDFN9bf8OgeO_KBa-9" value="&lt;font style=&quot;font-size: 21px;&quot;&gt;&lt;b&gt;avoir&lt;/b&gt;&lt;/font&gt;" style="ellipse;whiteSpace=wrap;html=1;aspect=fixed;" vertex="1" parent="1">
          <mxGeometry x="780" y="-1020" width="120" height="120" as="geometry" />
        </mxCell>
        <mxCell id="Qd1faDFN9bf8OgeO_KBa-10" value="&lt;b style=&quot;font-size: 26px;&quot;&gt;&lt;font style=&quot;font-size: 26px;&quot;&gt;id_&lt;span style=&quot;margin: 0px; padding: 0px; user-select: text; -webkit-user-drag: none; -webkit-tap-highlight-color: transparent; background-repeat: repeat-x; background-position: left bottom; background-image: var(--urlSpellingErrorV2, url(&#39;data:image/svg+xml;base64,PD94bWwgdmVyc2lvbj0iMS4wIiBlbmNvZGluZz0iVVRGLTgiPz4KPHN2ZyB3aWR0aD0iNXB4IiBoZWlnaHQ9IjRweCIgdmlld0JveD0iMCAwIDUgNCIgdmVyc2lvbj0iMS4xIiB4bWxucz0iaHR0cDovL3d3dy53My5vcmcvMjAwMC9zdmciIHhtbG5zOnhsaW5rPSJodHRwOi8vd3d3LnczLm9yZy8xOTk5L3hsaW5rIj4KICAgIDwhLS0gR2VuZXJhdG9yOiBTa2V0Y2ggNTYuMiAoODE2NzIpIC0gaHR0cHM6Ly9za2V0Y2guY29tIC0tPgogICAgPHRpdGxlPnNwZWxsaW5nX3NxdWlnZ2xlPC90aXRsZT4KICAgIDxkZXNjPkNyZWF0ZWQgd2l0aCBTa2V0Y2guPC9kZXNjPgogICAgPGcgaWQ9IkZsYWdzIiBzdHJva2U9Im5vbmUiIHN0cm9rZS13aWR0aD0iMSIgZmlsbD0ibm9uZSIgZmlsbC1ydWxlPSJldmVub2RkIj4KICAgICAgICA8ZyB0cmFuc2Zvcm09InRyYW5zbGF0ZSgtMTAxMC4wMDAwMDAsIC0yOTYuMDAwMDAwKSIgaWQ9InNwZWxsaW5nX3NxdWlnZ2xlIj4KICAgICAgICAgICAgPGcgdHJhbnNmb3JtPSJ0cmFuc2xhdGUoMTAxMC4wMDAwMDAsIDI5Ni4wMDAwMDApIj4KICAgICAgICAgICAgICAgIDxwYXRoIGQ9Ik0wLDMgQzEuMjUsMyAxLjI1LDEgMi41LDEgQzMuNzUsMSAzLjc1LDMgNSwzIiBpZD0iUGF0aCIgc3Ryb2tlPSIjRUIwMDAwIiBzdHJva2Utd2lkdGg9IjEiPjwvcGF0aD4KICAgICAgICAgICAgICAgIDxyZWN0IGlkPSJSZWN0YW5nbGUiIHg9IjAiIHk9IjAiIHdpZHRoPSI1IiBoZWlnaHQ9IjQiPjwvcmVjdD4KICAgICAgICAgICAgPC9nPgogICAgICAgIDwvZz4KICAgIDwvZz4KPC9zdmc+&#39;)); border-bottom: 1px solid transparent; font-family: Calibri, Calibri_EmbeddedFont, Calibri_MSFontService, sans-serif; font-variant-ligatures: none; text-align: left; background-color: rgb(255, 255, 255);&quot; class=&quot;NormalTextRun SpellingErrorV2Themed SCXW222031796 BCX0&quot;&gt;u&lt;/span&gt;&lt;span style=&quot;margin: 0px; padding: 0px; user-select: text; -webkit-user-drag: none; -webkit-tap-highlight-color: transparent; background-repeat: repeat-x; background-position: left bottom; background-image: var(--urlSpellingErrorV2, url(&#39;data:image/svg+xml;base64,PD94bWwgdmVyc2lvbj0iMS4wIiBlbmNvZGluZz0iVVRGLTgiPz4KPHN2ZyB3aWR0aD0iNXB4IiBoZWlnaHQ9IjRweCIgdmlld0JveD0iMCAwIDUgNCIgdmVyc2lvbj0iMS4xIiB4bWxucz0iaHR0cDovL3d3dy53My5vcmcvMjAwMC9zdmciIHhtbG5zOnhsaW5rPSJodHRwOi8vd3d3LnczLm9yZy8xOTk5L3hsaW5rIj4KICAgIDwhLS0gR2VuZXJhdG9yOiBTa2V0Y2ggNTYuMiAoODE2NzIpIC0gaHR0cHM6Ly9za2V0Y2guY29tIC0tPgogICAgPHRpdGxlPnNwZWxsaW5nX3NxdWlnZ2xlPC90aXRsZT4KICAgIDxkZXNjPkNyZWF0ZWQgd2l0aCBTa2V0Y2guPC9kZXNjPgogICAgPGcgaWQ9IkZsYWdzIiBzdHJva2U9Im5vbmUiIHN0cm9rZS13aWR0aD0iMSIgZmlsbD0ibm9uZSIgZmlsbC1ydWxlPSJldmVub2RkIj4KICAgICAgICA8ZyB0cmFuc2Zvcm09InRyYW5zbGF0ZSgtMTAxMC4wMDAwMDAsIC0yOTYuMDAwMDAwKSIgaWQ9InNwZWxsaW5nX3NxdWlnZ2xlIj4KICAgICAgICAgICAgPGcgdHJhbnNmb3JtPSJ0cmFuc2xhdGUoMTAxMC4wMDAwMDAsIDI5Ni4wMDAwMDApIj4KICAgICAgICAgICAgICAgIDxwYXRoIGQ9Ik0wLDMgQzEuMjUsMyAxLjI1LDEgMi41LDEgQzMuNzUsMSAzLjc1LDMgNSwzIiBpZD0iUGF0aCIgc3Ryb2tlPSIjRUIwMDAwIiBzdHJva2Utd2lkdGg9IjEiPjwvcGF0aD4KICAgICAgICAgICAgICAgIDxyZWN0IGlkPSJSZWN0YW5nbGUiIHg9IjAiIHk9IjAiIHdpZHRoPSI1IiBoZWlnaHQ9IjQiPjwvcmVjdD4KICAgICAgICAgICAgPC9nPgogICAgICAgIDwvZz4KICAgIDwvZz4KPC9zdmc+&#39;)); border-bottom: 1px solid transparent; font-family: Calibri, Calibri_EmbeddedFont, Calibri_MSFontService, sans-serif; font-variant-ligatures: none; text-align: left; background-color: rgb(255, 255, 255);&quot; class=&quot;NormalTextRun SpellingErrorV2Themed SCXW222031796 BCX0&quot;&gt;t&lt;/span&gt;&lt;span style=&quot;margin: 0px; padding: 0px; user-select: text; -webkit-user-drag: none; -webkit-tap-highlight-color: transparent; background-repeat: repeat-x; background-position: left bottom; background-image: var(--urlSpellingErrorV2, url(&#39;data:image/svg+xml;base64,PD94bWwgdmVyc2lvbj0iMS4wIiBlbmNvZGluZz0iVVRGLTgiPz4KPHN2ZyB3aWR0aD0iNXB4IiBoZWlnaHQ9IjRweCIgdmlld0JveD0iMCAwIDUgNCIgdmVyc2lvbj0iMS4xIiB4bWxucz0iaHR0cDovL3d3dy53My5vcmcvMjAwMC9zdmciIHhtbG5zOnhsaW5rPSJodHRwOi8vd3d3LnczLm9yZy8xOTk5L3hsaW5rIj4KICAgIDwhLS0gR2VuZXJhdG9yOiBTa2V0Y2ggNTYuMiAoODE2NzIpIC0gaHR0cHM6Ly9za2V0Y2guY29tIC0tPgogICAgPHRpdGxlPnNwZWxsaW5nX3NxdWlnZ2xlPC90aXRsZT4KICAgIDxkZXNjPkNyZWF0ZWQgd2l0aCBTa2V0Y2guPC9kZXNjPgogICAgPGcgaWQ9IkZsYWdzIiBzdHJva2U9Im5vbmUiIHN0cm9rZS13aWR0aD0iMSIgZmlsbD0ibm9uZSIgZmlsbC1ydWxlPSJldmVub2RkIj4KICAgICAgICA8ZyB0cmFuc2Zvcm09InRyYW5zbGF0ZSgtMTAxMC4wMDAwMDAsIC0yOTYuMDAwMDAwKSIgaWQ9InNwZWxsaW5nX3NxdWlnZ2xlIj4KICAgICAgICAgICAgPGcgdHJhbnNmb3JtPSJ0cmFuc2xhdGUoMTAxMC4wMDAwMDAsIDI5Ni4wMDAwMDApIj4KICAgICAgICAgICAgICAgIDxwYXRoIGQ9Ik0wLDMgQzEuMjUsMyAxLjI1LDEgMi41LDEgQzMuNzUsMSAzLjc1LDMgNSwzIiBpZD0iUGF0aCIgc3Ryb2tlPSIjRUIwMDAwIiBzdHJva2Utd2lkdGg9IjEiPjwvcGF0aD4KICAgICAgICAgICAgICAgIDxyZWN0IGlkPSJSZWN0YW5nbGUiIHg9IjAiIHk9IjAiIHdpZHRoPSI1IiBoZWlnaHQ9IjQiPjwvcmVjdD4KICAgICAgICAgICAgPC9nPgogICAgICAgIDwvZz4KICAgIDwvZz4KPC9zdmc+&#39;)); border-bottom: 1px solid transparent; font-family: Calibri, Calibri_EmbeddedFont, Calibri_MSFontService, sans-serif; font-variant-ligatures: none; text-align: left; background-color: rgb(255, 255, 255);&quot; class=&quot;NormalTextRun SpellingErrorV2Themed SCXW222031796 BCX0&quot;&gt;ilisateur&lt;/span&gt;&lt;/font&gt;&lt;/b&gt;" style="text;html=1;strokeColor=none;fillColor=none;align=center;verticalAlign=middle;whiteSpace=wrap;rounded=0;fontSize=20;fontFamily=Architects Daughter;" vertex="1" parent="1">
          <mxGeometry x="1050" y="-1190" width="280" height="80" as="geometry" />
        </mxCell>
        <mxCell id="Qd1faDFN9bf8OgeO_KBa-11" value="&lt;div style=&quot;text-align: left; font-size: 27px;&quot;&gt;&lt;font style=&quot;font-size: 27px;&quot; face=&quot;WordVisi_MSFontService, Calibri, Calibri_EmbeddedFont, Calibri_MSFontService, sans-serif&quot;&gt;&lt;b style=&quot;&quot;&gt;&amp;nbsp;nom&lt;/b&gt;&lt;/font&gt;&lt;/div&gt;&lt;span style=&quot;accent-color: auto; place-content: normal; place-items: normal; place-self: auto; alignment-baseline: auto; animation: 0s ease 0s 1 normal none running none; animation-composition: replace; app-region: none; appearance: none; aspect-ratio: auto; backdrop-filter: none; backface-visibility: visible; background: none 0% 0% / auto repeat scroll padding-box border-box rgba(0, 0, 0, 0); background-blend-mode: normal; baseline-shift: 0px; baseline-source: auto; border-image: none 100% / 1 / 0 stretch; border-color: rgb(0, 0, 0); border-collapse: separate; border-end-end-radius: 0px; border-end-start-radius: 0px; border-width: 0px; border-style: none; border-spacing: 0px; border-start-end-radius: 0px; border-start-start-radius: 0px; border-radius: 0px; inset: auto; box-shadow: none; box-sizing: content-box; break-after: auto; break-before: auto; break-inside: auto; buffered-rendering: auto; caption-side: top; caret-color: rgb(0, 0, 0); clear: none; clip: auto; clip-path: none; clip-rule: nonzero; color-interpolation: srgb; color-interpolation-filters: linearrgb; color-rendering: auto; color-scheme: normal; columns: auto; column-fill: balance; gap: normal; column-rule: 0px rgb(0, 0, 0); column-span: none; contain: none; contain-intrinsic-block-size: none; contain-intrinsic-size: none; contain-intrinsic-inline-size: none; container: none; content: normal; content-visibility: visible; counter-increment: none; counter-reset: none; counter-set: none; cursor: text; cx: 0px; cy: 0px; d: none; direction: ltr; display: inline; dominant-baseline: auto; empty-cells: show; fill: rgb(0, 0, 0); fill-opacity: 1; fill-rule: nonzero; filter: none; flex: 0 1 auto; flex-flow: row; float: none; flood-color: rgb(0, 0, 0); flood-opacity: 1; font-family: WordVisi_MSFontService, Calibri, Calibri_EmbeddedFont, Calibri_MSFontService, sans-serif; font-feature-settings: normal; font-kerning: none; font-optical-sizing: auto; font-palette: normal; font-stretch: 100%; font-synthesis: weight style small-caps; font-variant-ligatures: no-common-ligatures no-discretionary-ligatures no-historical-ligatures no-contextual; font-variant-numeric: normal; font-variant-east-asian: normal; font-variant-alternates: normal; font-variant-position: normal; font-variation-settings: normal; font-weight: 700; forced-color-adjust: auto; grid-area: auto; grid: none; height: auto; hyphenate-character: auto; hyphenate-limit-chars: auto; hyphens: manual; image-orientation: from-image; image-rendering: auto; initial-letter: normal; inline-size: auto; inset-block: auto; inset-inline: auto; isolation: auto; lighting-color: rgb(255, 255, 255); line-break: auto; line-height: 19.425px; list-style: outside none disc; margin: 0px; marker: none; mask-type: luminance; math-depth: 0; math-shift: normal; math-style: normal; max-height: none; max-width: none; min-height: 0px; min-width: 0px; mix-blend-mode: normal; object-fit: fill; object-position: 50% 50%; object-view-box: none; offset: auto; opacity: 1; order: 0; outline: rgb(0, 0, 0) none 0px; outline-offset: 0px; overflow: visible; overflow-anchor: auto; overflow-clip-margin: 0px; overflow-wrap: break-word; overlay: none; overscroll-behavior-block: auto; overscroll-behavior-inline: auto; overscroll-behavior: auto; padding: 0px; page: auto; paint-order: normal; perspective: none; perspective-origin: 0px 0px; pointer-events: auto; position: static; quotes: auto; r: 0px; resize: none; rotate: none; ruby-position: over; rx: auto; ry: auto; scale: none; scroll-behavior: auto; scroll-margin-block: 0px; scroll-margin: 0px; scroll-margin-inline: 0px; scroll-padding-block: auto; scroll-padding: auto; scroll-padding-inline: auto; scroll-snap-align: none; scroll-snap-stop: normal; scroll-snap-type: none; scroll-timeline: none; scrollbar-gutter: auto; shape-image-threshold: 0; shape-margin: 0px; shape-outside: none; shape-rendering: auto; speak: normal; stop-color: rgb(0, 0, 0); stop-opacity: 1; stroke: none; stroke-dasharray: none; stroke-dashoffset: 0px; stroke-linecap: butt; stroke-linejoin: miter; stroke-miterlimit: 4; stroke-opacity: 1; stroke-width: 1px; tab-size: 8; table-layout: auto; text-align: left; text-align-last: auto; text-anchor: start; text-combine-upright: none; text-decoration-style: solid; text-decoration-color: rgb(0, 0, 0); text-decoration-skip-ink: auto; text-emphasis: none rgb(0, 0, 0); text-emphasis-position: over; text-orientation: mixed; text-overflow: clip; text-rendering: auto; text-shadow: none; text-size-adjust: auto; text-underline-offset: auto; text-underline-position: auto; timeline-scope: none; touch-action: auto; transform: none; transform-box: view-box; transform-origin: 0px 0px; transform-style: flat; transition: all 0s ease 0s; translate: none; unicode-bidi: normal; user-select: text; vector-effect: none; vertical-align: baseline; view-timeline: none 0px; view-transition-name: none; visibility: visible; border-block-end: 0px none rgb(0, 0, 0); border-block-start: 0px none rgb(0, 0, 0); border-inline-end: 0px none rgb(0, 0, 0); -webkit-border-image: none; border-inline-start: 0px none rgb(0, 0, 0); -webkit-box-align: stretch; -webkit-box-decoration-break: slice; -webkit-box-direction: normal; -webkit-box-flex: 0; -webkit-box-ordinal-group: 1; -webkit-box-orient: horizontal; -webkit-box-pack: start; -webkit-font-smoothing: auto; -webkit-line-break: auto; -webkit-locale: &amp;quot;fr-FR&amp;quot;; block-size: auto; margin-block: 0px; margin-inline: 0px; -webkit-mask-box-image-source: none; -webkit-mask-box-image-slice: 0 fill; -webkit-mask-box-image-width: auto; -webkit-mask-box-image-outset: 0; -webkit-mask-box-image-repeat: stretch; mask: none 0% 0% / auto repeat source-over; max-block-size: none; max-inline-size: none; min-block-size: 0px; min-inline-size: 0px; padding-block: 0px; padding-inline: 0px; -webkit-print-color-adjust: economy; -webkit-rtl-ordering: logical; -webkit-ruby-position: before; -webkit-tap-highlight-color: rgba(0, 0, 0, 0); -webkit-text-combine: none; -webkit-text-fill-color: rgb(0, 0, 0); -webkit-text-orientation: vertical-right; -webkit-text-security: none; -webkit-text-stroke-color: rgb(0, 0, 0); -webkit-user-drag: none; -webkit-user-modify: read-only; -webkit-writing-mode: horizontal-tb; width: auto; will-change: auto; word-break: normal; writing-mode: horizontal-tb; x: 0px; y: 0px; z-index: auto; zoom: 1; font-size: 27px;&quot; class=&quot;TextRun SCXW222031796 BCX0&quot; lang=&quot;FR-FR&quot; data-contrast=&quot;auto&quot;&gt;&lt;/span&gt;" style="text;html=1;strokeColor=none;fillColor=none;align=center;verticalAlign=middle;whiteSpace=wrap;rounded=0;fontSize=20;fontFamily=Architects Daughter;" vertex="1" parent="1">
          <mxGeometry x="1065" y="-1080" width="220" height="60" as="geometry" />
        </mxCell>
        <mxCell id="Qd1faDFN9bf8OgeO_KBa-12" value=" &lt;span style=&quot;margin: 0px; padding: 0px; user-select: text; -webkit-user-drag: none; -webkit-tap-highlight-color: transparent; background-repeat: repeat-x; background-position: left bottom; background-image: var(--urlSpellingErrorV2, url(&#39;data:image/svg+xml;base64,PD94bWwgdmVyc2lvbj0iMS4wIiBlbmNvZGluZz0iVVRGLTgiPz4KPHN2ZyB3aWR0aD0iNXB4IiBoZWlnaHQ9IjRweCIgdmlld0JveD0iMCAwIDUgNCIgdmVyc2lvbj0iMS4xIiB4bWxucz0iaHR0cDovL3d3dy53My5vcmcvMjAwMC9zdmciIHhtbG5zOnhsaW5rPSJodHRwOi8vd3d3LnczLm9yZy8xOTk5L3hsaW5rIj4KICAgIDwhLS0gR2VuZXJhdG9yOiBTa2V0Y2ggNTYuMiAoODE2NzIpIC0gaHR0cHM6Ly9za2V0Y2guY29tIC0tPgogICAgPHRpdGxlPnNwZWxsaW5nX3NxdWlnZ2xlPC90aXRsZT4KICAgIDxkZXNjPkNyZWF0ZWQgd2l0aCBTa2V0Y2guPC9kZXNjPgogICAgPGcgaWQ9IkZsYWdzIiBzdHJva2U9Im5vbmUiIHN0cm9rZS13aWR0aD0iMSIgZmlsbD0ibm9uZSIgZmlsbC1ydWxlPSJldmVub2RkIj4KICAgICAgICA8ZyB0cmFuc2Zvcm09InRyYW5zbGF0ZSgtMTAxMC4wMDAwMDAsIC0yOTYuMDAwMDAwKSIgaWQ9InNwZWxsaW5nX3NxdWlnZ2xlIj4KICAgICAgICAgICAgPGcgdHJhbnNmb3JtPSJ0cmFuc2xhdGUoMTAxMC4wMDAwMDAsIDI5Ni4wMDAwMDApIj4KICAgICAgICAgICAgICAgIDxwYXRoIGQ9Ik0wLDMgQzEuMjUsMyAxLjI1LDEgMi41LDEgQzMuNzUsMSAzLjc1LDMgNSwzIiBpZD0iUGF0aCIgc3Ryb2tlPSIjRUIwMDAwIiBzdHJva2Utd2lkdGg9IjEiPjwvcGF0aD4KICAgICAgICAgICAgICAgIDxyZWN0IGlkPSJSZWN0YW5nbGUiIHg9IjAiIHk9IjAiIHdpZHRoPSI1IiBoZWlnaHQ9IjQiPjwvcmVjdD4KICAgICAgICAgICAgPC9nPgogICAgICAgIDwvZz4KICAgIDwvZz4KPC9zdmc+&#39;)); border-bottom: 1px solid transparent; font-family: Calibri, Calibri_EmbeddedFont, Calibri_MSFontService, sans-serif; font-variant-ligatures: none; font-weight: 700; text-align: left; background-color: rgb(255, 255, 255);&quot; class=&quot;NormalTextRun SpellingErrorV2Themed SCXW222031796 BCX0&quot;&gt;&lt;font style=&quot;font-size: 27px;&quot;&gt;prenom&lt;/font&gt;&lt;/span&gt;" style="text;html=1;strokeColor=none;fillColor=none;align=center;verticalAlign=middle;whiteSpace=wrap;rounded=0;fontSize=20;fontFamily=Architects Daughter;" vertex="1" parent="1">
          <mxGeometry x="1060" y="-1120" width="230" height="50" as="geometry" />
        </mxCell>
        <mxCell id="Qd1faDFN9bf8OgeO_KBa-13" value="&lt;div style=&quot;text-align: left; font-size: 26px;&quot;&gt;&lt;font style=&quot;font-size: 26px;&quot; face=&quot;WordVisi_MSFontService, Calibri, Calibri_EmbeddedFont, Calibri_MSFontService, sans-serif&quot;&gt;&lt;b style=&quot;&quot;&gt;&amp;nbsp;email&lt;/b&gt;&lt;/font&gt;&lt;/div&gt;&lt;span style=&quot;accent-color: auto; place-content: normal; place-items: normal; place-self: auto; alignment-baseline: auto; animation: 0s ease 0s 1 normal none running none; animation-composition: replace; app-region: none; appearance: none; aspect-ratio: auto; backdrop-filter: none; backface-visibility: visible; background: none 0% 0% / auto repeat scroll padding-box border-box rgba(0, 0, 0, 0); background-blend-mode: normal; baseline-shift: 0px; baseline-source: auto; border-image: none 100% / 1 / 0 stretch; border-color: rgb(0, 0, 0); border-collapse: separate; border-end-end-radius: 0px; border-end-start-radius: 0px; border-width: 0px; border-style: none; border-spacing: 0px; border-start-end-radius: 0px; border-start-start-radius: 0px; border-radius: 0px; inset: auto; box-shadow: none; box-sizing: content-box; break-after: auto; break-before: auto; break-inside: auto; buffered-rendering: auto; caption-side: top; caret-color: rgb(0, 0, 0); clear: none; clip: auto; clip-path: none; clip-rule: nonzero; color-interpolation: srgb; color-interpolation-filters: linearrgb; color-rendering: auto; color-scheme: normal; columns: auto; column-fill: balance; gap: normal; column-rule: 0px rgb(0, 0, 0); column-span: none; contain: none; contain-intrinsic-block-size: none; contain-intrinsic-size: none; contain-intrinsic-inline-size: none; container: none; content: normal; content-visibility: visible; counter-increment: none; counter-reset: none; counter-set: none; cursor: text; cx: 0px; cy: 0px; d: none; direction: ltr; display: inline; dominant-baseline: auto; empty-cells: show; fill: rgb(0, 0, 0); fill-opacity: 1; fill-rule: nonzero; filter: none; flex: 0 1 auto; flex-flow: row; float: none; flood-color: rgb(0, 0, 0); flood-opacity: 1; font-family: WordVisi_MSFontService, Calibri, Calibri_EmbeddedFont, Calibri_MSFontService, sans-serif; font-feature-settings: normal; font-kerning: none; font-optical-sizing: auto; font-palette: normal; font-size: 26px; font-stretch: 100%; font-synthesis: weight style small-caps; font-variant-ligatures: no-common-ligatures no-discretionary-ligatures no-historical-ligatures no-contextual; font-variant-numeric: normal; font-variant-east-asian: normal; font-variant-alternates: normal; font-variant-position: normal; font-variation-settings: normal; font-weight: 700; forced-color-adjust: auto; grid-area: auto; grid: none; height: auto; hyphenate-character: auto; hyphenate-limit-chars: auto; hyphens: manual; image-orientation: from-image; image-rendering: auto; initial-letter: normal; inline-size: auto; inset-block: auto; inset-inline: auto; isolation: auto; lighting-color: rgb(255, 255, 255); line-break: auto; line-height: 19.425px; list-style: outside none disc; margin: 0px; marker: none; mask-type: luminance; math-depth: 0; math-shift: normal; math-style: normal; max-height: none; max-width: none; min-height: 0px; min-width: 0px; mix-blend-mode: normal; object-fit: fill; object-position: 50% 50%; object-view-box: none; offset: auto; opacity: 1; order: 0; outline: rgb(0, 0, 0) none 0px; outline-offset: 0px; overflow: visible; overflow-anchor: auto; overflow-clip-margin: 0px; overflow-wrap: break-word; overlay: none; overscroll-behavior-block: auto; overscroll-behavior-inline: auto; overscroll-behavior: auto; padding: 0px; page: auto; paint-order: normal; perspective: none; perspective-origin: 0px 0px; pointer-events: auto; position: static; quotes: auto; r: 0px; resize: none; rotate: none; ruby-position: over; rx: auto; ry: auto; scale: none; scroll-behavior: auto; scroll-margin-block: 0px; scroll-margin: 0px; scroll-margin-inline: 0px; scroll-padding-block: auto; scroll-padding: auto; scroll-padding-inline: auto; scroll-snap-align: none; scroll-snap-stop: normal; scroll-snap-type: none; scroll-timeline: none; scrollbar-gutter: auto; shape-image-threshold: 0; shape-margin: 0px; shape-outside: none; shape-rendering: auto; speak: normal; stop-color: rgb(0, 0, 0); stop-opacity: 1; stroke: none; stroke-dasharray: none; stroke-dashoffset: 0px; stroke-linecap: butt; stroke-linejoin: miter; stroke-miterlimit: 4; stroke-opacity: 1; stroke-width: 1px; tab-size: 8; table-layout: auto; text-align: left; text-align-last: auto; text-anchor: start; text-combine-upright: none; text-decoration-style: solid; text-decoration-color: rgb(0, 0, 0); text-decoration-skip-ink: auto; text-emphasis: none rgb(0, 0, 0); text-emphasis-position: over; text-orientation: mixed; text-overflow: clip; text-rendering: auto; text-shadow: none; text-size-adjust: auto; text-underline-offset: auto; text-underline-position: auto; timeline-scope: none; touch-action: auto; transform: none; transform-box: view-box; transform-origin: 0px 0px; transform-style: flat; transition: all 0s ease 0s; translate: none; unicode-bidi: normal; user-select: text; vector-effect: none; vertical-align: baseline; view-timeline: none 0px; view-transition-name: none; visibility: visible; border-block-end: 0px none rgb(0, 0, 0); border-block-start: 0px none rgb(0, 0, 0); border-inline-end: 0px none rgb(0, 0, 0); -webkit-border-image: none; border-inline-start: 0px none rgb(0, 0, 0); -webkit-box-align: stretch; -webkit-box-decoration-break: slice; -webkit-box-direction: normal; -webkit-box-flex: 0; -webkit-box-ordinal-group: 1; -webkit-box-orient: horizontal; -webkit-box-pack: start; -webkit-font-smoothing: auto; -webkit-line-break: auto; -webkit-locale: &amp;quot;fr-FR&amp;quot;; block-size: auto; margin-block: 0px; margin-inline: 0px; -webkit-mask-box-image-source: none; -webkit-mask-box-image-slice: 0 fill; -webkit-mask-box-image-width: auto; -webkit-mask-box-image-outset: 0; -webkit-mask-box-image-repeat: stretch; mask: none 0% 0% / auto repeat source-over; max-block-size: none; max-inline-size: none; min-block-size: 0px; min-inline-size: 0px; padding-block: 0px; padding-inline: 0px; -webkit-print-color-adjust: economy; -webkit-rtl-ordering: logical; -webkit-ruby-position: before; -webkit-tap-highlight-color: rgba(0, 0, 0, 0); -webkit-text-combine: none; -webkit-text-fill-color: rgb(0, 0, 0); -webkit-text-orientation: vertical-right; -webkit-text-security: none; -webkit-text-stroke-color: rgb(0, 0, 0); -webkit-user-drag: none; -webkit-user-modify: read-only; -webkit-writing-mode: horizontal-tb; width: auto; will-change: auto; word-break: normal; writing-mode: horizontal-tb; x: 0px; y: 0px; z-index: auto; zoom: 1;&quot; class=&quot;TextRun SCXW222031796 BCX0&quot; lang=&quot;FR-FR&quot; data-contrast=&quot;auto&quot;&gt;&lt;/span&gt;" style="text;html=1;strokeColor=none;fillColor=none;align=center;verticalAlign=middle;whiteSpace=wrap;rounded=0;fontSize=20;fontFamily=Architects Daughter;" vertex="1" parent="1">
          <mxGeometry x="1085" y="-1029" width="180" height="50" as="geometry" />
        </mxCell>
        <mxCell id="Qd1faDFN9bf8OgeO_KBa-14" value="&lt;div style=&quot;text-align: left; font-size: 26px;&quot;&gt;&lt;font style=&quot;font-size: 26px;&quot; face=&quot;WordVisi_MSFontService, Calibri, Calibri_EmbeddedFont, Calibri_MSFontService, sans-serif&quot;&gt;&lt;b style=&quot;&quot;&gt;mdp&lt;/b&gt;&lt;/font&gt;&lt;/div&gt;&lt;span style=&quot;accent-color: auto; place-content: normal; place-items: normal; place-self: auto; alignment-baseline: auto; animation: 0s ease 0s 1 normal none running none; animation-composition: replace; app-region: none; appearance: none; aspect-ratio: auto; backdrop-filter: none; backface-visibility: visible; background: none 0% 0% / auto repeat scroll padding-box border-box rgba(0, 0, 0, 0); background-blend-mode: normal; baseline-shift: 0px; baseline-source: auto; border-image: none 100% / 1 / 0 stretch; border-color: rgb(0, 0, 0); border-collapse: separate; border-end-end-radius: 0px; border-end-start-radius: 0px; border-width: 0px; border-style: none; border-spacing: 0px; border-start-end-radius: 0px; border-start-start-radius: 0px; border-radius: 0px; inset: auto; box-shadow: none; box-sizing: content-box; break-after: auto; break-before: auto; break-inside: auto; buffered-rendering: auto; caption-side: top; caret-color: rgb(0, 0, 0); clear: none; clip: auto; clip-path: none; clip-rule: nonzero; color-interpolation: srgb; color-interpolation-filters: linearrgb; color-rendering: auto; color-scheme: normal; columns: auto; column-fill: balance; gap: normal; column-rule: 0px rgb(0, 0, 0); column-span: none; contain: none; contain-intrinsic-block-size: none; contain-intrinsic-size: none; contain-intrinsic-inline-size: none; container: none; content: normal; content-visibility: visible; counter-increment: none; counter-reset: none; counter-set: none; cursor: text; cx: 0px; cy: 0px; d: none; direction: ltr; display: inline; dominant-baseline: auto; empty-cells: show; fill: rgb(0, 0, 0); fill-opacity: 1; fill-rule: nonzero; filter: none; flex: 0 1 auto; flex-flow: row; float: none; flood-color: rgb(0, 0, 0); flood-opacity: 1; font-family: WordVisi_MSFontService, Calibri, Calibri_EmbeddedFont, Calibri_MSFontService, sans-serif; font-feature-settings: normal; font-kerning: none; font-optical-sizing: auto; font-palette: normal; font-size: 26px; font-stretch: 100%; font-synthesis: weight style small-caps; font-variant-ligatures: no-common-ligatures no-discretionary-ligatures no-historical-ligatures no-contextual; font-variant-numeric: normal; font-variant-east-asian: normal; font-variant-alternates: normal; font-variant-position: normal; font-variation-settings: normal; font-weight: 700; forced-color-adjust: auto; grid-area: auto; grid: none; height: auto; hyphenate-character: auto; hyphenate-limit-chars: auto; hyphens: manual; image-orientation: from-image; image-rendering: auto; initial-letter: normal; inline-size: auto; inset-block: auto; inset-inline: auto; isolation: auto; lighting-color: rgb(255, 255, 255); line-break: auto; line-height: 19.425px; list-style: outside none disc; margin: 0px; marker: none; mask-type: luminance; math-depth: 0; math-shift: normal; math-style: normal; max-height: none; max-width: none; min-height: 0px; min-width: 0px; mix-blend-mode: normal; object-fit: fill; object-position: 50% 50%; object-view-box: none; offset: auto; opacity: 1; order: 0; outline: rgb(0, 0, 0) none 0px; outline-offset: 0px; overflow: visible; overflow-anchor: auto; overflow-clip-margin: 0px; overflow-wrap: break-word; overlay: none; overscroll-behavior-block: auto; overscroll-behavior-inline: auto; overscroll-behavior: auto; padding: 0px; page: auto; paint-order: normal; perspective: none; perspective-origin: 0px 0px; pointer-events: auto; position: static; quotes: auto; r: 0px; resize: none; rotate: none; ruby-position: over; rx: auto; ry: auto; scale: none; scroll-behavior: auto; scroll-margin-block: 0px; scroll-margin: 0px; scroll-margin-inline: 0px; scroll-padding-block: auto; scroll-padding: auto; scroll-padding-inline: auto; scroll-snap-align: none; scroll-snap-stop: normal; scroll-snap-type: none; scroll-timeline: none; scrollbar-gutter: auto; shape-image-threshold: 0; shape-margin: 0px; shape-outside: none; shape-rendering: auto; speak: normal; stop-color: rgb(0, 0, 0); stop-opacity: 1; stroke: none; stroke-dasharray: none; stroke-dashoffset: 0px; stroke-linecap: butt; stroke-linejoin: miter; stroke-miterlimit: 4; stroke-opacity: 1; stroke-width: 1px; tab-size: 8; table-layout: auto; text-align: left; text-align-last: auto; text-anchor: start; text-combine-upright: none; text-decoration-style: solid; text-decoration-color: rgb(0, 0, 0); text-decoration-skip-ink: auto; text-emphasis: none rgb(0, 0, 0); text-emphasis-position: over; text-orientation: mixed; text-overflow: clip; text-rendering: auto; text-shadow: none; text-size-adjust: auto; text-underline-offset: auto; text-underline-position: auto; timeline-scope: none; touch-action: auto; transform: none; transform-box: view-box; transform-origin: 0px 0px; transform-style: flat; transition: all 0s ease 0s; translate: none; unicode-bidi: normal; user-select: text; vector-effect: none; vertical-align: baseline; view-timeline: none 0px; view-transition-name: none; visibility: visible; border-block-end: 0px none rgb(0, 0, 0); border-block-start: 0px none rgb(0, 0, 0); border-inline-end: 0px none rgb(0, 0, 0); -webkit-border-image: none; border-inline-start: 0px none rgb(0, 0, 0); -webkit-box-align: stretch; -webkit-box-decoration-break: slice; -webkit-box-direction: normal; -webkit-box-flex: 0; -webkit-box-ordinal-group: 1; -webkit-box-orient: horizontal; -webkit-box-pack: start; -webkit-font-smoothing: auto; -webkit-line-break: auto; -webkit-locale: &amp;quot;fr-FR&amp;quot;; block-size: auto; margin-block: 0px; margin-inline: 0px; -webkit-mask-box-image-source: none; -webkit-mask-box-image-slice: 0 fill; -webkit-mask-box-image-width: auto; -webkit-mask-box-image-outset: 0; -webkit-mask-box-image-repeat: stretch; mask: none 0% 0% / auto repeat source-over; max-block-size: none; max-inline-size: none; min-block-size: 0px; min-inline-size: 0px; padding-block: 0px; padding-inline: 0px; -webkit-print-color-adjust: economy; -webkit-rtl-ordering: logical; -webkit-ruby-position: before; -webkit-tap-highlight-color: rgba(0, 0, 0, 0); -webkit-text-combine: none; -webkit-text-fill-color: rgb(0, 0, 0); -webkit-text-orientation: vertical-right; -webkit-text-security: none; -webkit-text-stroke-color: rgb(0, 0, 0); -webkit-user-drag: none; -webkit-user-modify: read-only; -webkit-writing-mode: horizontal-tb; width: auto; will-change: auto; word-break: normal; writing-mode: horizontal-tb; x: 0px; y: 0px; z-index: auto; zoom: 1;&quot; class=&quot;TextRun SCXW222031796 BCX0&quot; lang=&quot;FR-FR&quot; data-contrast=&quot;auto&quot;&gt;&lt;/span&gt;" style="text;html=1;strokeColor=none;fillColor=none;align=center;verticalAlign=middle;whiteSpace=wrap;rounded=0;fontSize=20;fontFamily=Architects Daughter;" vertex="1" parent="1">
          <mxGeometry x="1100" y="-980" width="150" height="40" as="geometry" />
        </mxCell>
        <mxCell id="Qd1faDFN9bf8OgeO_KBa-15" value="&lt;b&gt;statut (&lt;font style=&quot;font-size: 24px;&quot;&gt;&lt;span style=&quot;margin: 0px; padding: 0px; user-select: text; -webkit-user-drag: none; -webkit-tap-highlight-color: transparent; font-family: Calibri, Calibri_EmbeddedFont, Calibri_MSFontService, sans-serif; font-variant-ligatures: none; text-align: left; background-color: rgb(255, 255, 255);&quot; class=&quot;NormalTextRun SCXW222031796 BCX0&quot;&gt;client ou administrateur&lt;/span&gt;&lt;span style=&quot;margin: 0px; padding: 0px; user-select: text; -webkit-user-drag: none; -webkit-tap-highlight-color: transparent; font-family: Calibri, Calibri_EmbeddedFont, Calibri_MSFontService, sans-serif; font-variant-ligatures: none; text-align: left; background-color: rgb(255, 255, 255);&quot; class=&quot;NormalTextRun SCXW222031796 BCX0&quot;&gt;)&lt;/span&gt;&lt;/font&gt;&lt;/b&gt;" style="text;html=1;strokeColor=none;fillColor=none;align=center;verticalAlign=middle;whiteSpace=wrap;rounded=0;fontSize=20;fontFamily=Architects Daughter;" vertex="1" parent="1">
          <mxGeometry x="1085" y="-930" width="220" height="60" as="geometry" />
        </mxCell>
        <mxCell id="Qd1faDFN9bf8OgeO_KBa-16" value="&lt;b&gt;&lt;font style=&quot;font-size: 24px;&quot;&gt;date_de_naissance&lt;/font&gt;&lt;/b&gt;&lt;span style=&quot;margin: 0px; padding: 0px; user-select: text; -webkit-user-drag: none; -webkit-tap-highlight-color: transparent; font-family: Calibri, Calibri_EmbeddedFont, Calibri_MSFontService, sans-serif; font-size: 14.6667px; font-variant-ligatures: none; font-weight: 700; text-align: left; background-color: rgb(255, 255, 255);&quot; class=&quot;NormalTextRun SCXW222031796 BCX0&quot;&gt; &lt;/span&gt;" style="text;html=1;strokeColor=none;fillColor=none;align=center;verticalAlign=middle;whiteSpace=wrap;rounded=0;fontSize=20;fontFamily=Architects Daughter;" vertex="1" parent="1">
          <mxGeometry x="1080" y="-860" width="250" height="50" as="geometry" />
        </mxCell>
        <mxCell id="Qd1faDFN9bf8OgeO_KBa-17" value="&lt;div style=&quot;text-align: left; font-size: 25px;&quot;&gt;&lt;font style=&quot;font-size: 25px;&quot; face=&quot;WordVisi_MSFontService, Calibri, Calibri_EmbeddedFont, Calibri_MSFontService, sans-serif&quot;&gt;&lt;b style=&quot;&quot;&gt;adresse&lt;/b&gt;&lt;/font&gt;&lt;/div&gt;&lt;span style=&quot;accent-color: auto; place-content: normal; place-items: normal; place-self: auto; alignment-baseline: auto; animation: 0s ease 0s 1 normal none running none; animation-composition: replace; app-region: none; appearance: none; aspect-ratio: auto; backdrop-filter: none; backface-visibility: visible; background: none 0% 0% / auto repeat scroll padding-box border-box rgba(0, 0, 0, 0); background-blend-mode: normal; baseline-shift: 0px; baseline-source: auto; border-image: none 100% / 1 / 0 stretch; border-color: rgb(0, 0, 0); border-collapse: separate; border-end-end-radius: 0px; border-end-start-radius: 0px; border-width: 0px; border-style: none; border-spacing: 0px; border-start-end-radius: 0px; border-start-start-radius: 0px; border-radius: 0px; inset: auto; box-shadow: none; box-sizing: content-box; break-after: auto; break-before: auto; break-inside: auto; buffered-rendering: auto; caption-side: top; caret-color: rgb(0, 0, 0); clear: none; clip: auto; clip-path: none; clip-rule: nonzero; color-interpolation: srgb; color-interpolation-filters: linearrgb; color-rendering: auto; color-scheme: normal; columns: auto; column-fill: balance; gap: normal; column-rule: 0px rgb(0, 0, 0); column-span: none; contain: none; contain-intrinsic-block-size: none; contain-intrinsic-size: none; contain-intrinsic-inline-size: none; container: none; content: normal; content-visibility: visible; counter-increment: none; counter-reset: none; counter-set: none; cursor: text; cx: 0px; cy: 0px; d: none; direction: ltr; display: inline; dominant-baseline: auto; empty-cells: show; fill: rgb(0, 0, 0); fill-opacity: 1; fill-rule: nonzero; filter: none; flex: 0 1 auto; flex-flow: row; float: none; flood-color: rgb(0, 0, 0); flood-opacity: 1; font-family: WordVisi_MSFontService, Calibri, Calibri_EmbeddedFont, Calibri_MSFontService, sans-serif; font-feature-settings: normal; font-kerning: none; font-optical-sizing: auto; font-palette: normal; font-size: 25px; font-stretch: 100%; font-synthesis: weight style small-caps; font-variant-ligatures: no-common-ligatures no-discretionary-ligatures no-historical-ligatures no-contextual; font-variant-numeric: normal; font-variant-east-asian: normal; font-variant-alternates: normal; font-variant-position: normal; font-variation-settings: normal; font-weight: 700; forced-color-adjust: auto; grid-area: auto; grid: none; height: auto; hyphenate-character: auto; hyphenate-limit-chars: auto; hyphens: manual; image-orientation: from-image; image-rendering: auto; initial-letter: normal; inline-size: auto; inset-block: auto; inset-inline: auto; isolation: auto; lighting-color: rgb(255, 255, 255); line-break: auto; line-height: 19.425px; list-style: outside none disc; margin: 0px; marker: none; mask-type: luminance; math-depth: 0; math-shift: normal; math-style: normal; max-height: none; max-width: none; min-height: 0px; min-width: 0px; mix-blend-mode: normal; object-fit: fill; object-position: 50% 50%; object-view-box: none; offset: auto; opacity: 1; order: 0; outline: rgb(0, 0, 0) none 0px; outline-offset: 0px; overflow: visible; overflow-anchor: auto; overflow-clip-margin: 0px; overflow-wrap: break-word; overlay: none; overscroll-behavior-block: auto; overscroll-behavior-inline: auto; overscroll-behavior: auto; padding: 0px; page: auto; paint-order: normal; perspective: none; perspective-origin: 0px 0px; pointer-events: auto; position: static; quotes: auto; r: 0px; resize: none; rotate: none; ruby-position: over; rx: auto; ry: auto; scale: none; scroll-behavior: auto; scroll-margin-block: 0px; scroll-margin: 0px; scroll-margin-inline: 0px; scroll-padding-block: auto; scroll-padding: auto; scroll-padding-inline: auto; scroll-snap-align: none; scroll-snap-stop: normal; scroll-snap-type: none; scroll-timeline: none; scrollbar-gutter: auto; shape-image-threshold: 0; shape-margin: 0px; shape-outside: none; shape-rendering: auto; speak: normal; stop-color: rgb(0, 0, 0); stop-opacity: 1; stroke: none; stroke-dasharray: none; stroke-dashoffset: 0px; stroke-linecap: butt; stroke-linejoin: miter; stroke-miterlimit: 4; stroke-opacity: 1; stroke-width: 1px; tab-size: 8; table-layout: auto; text-align: left; text-align-last: auto; text-anchor: start; text-combine-upright: none; text-decoration-style: solid; text-decoration-color: rgb(0, 0, 0); text-decoration-skip-ink: auto; text-emphasis: none rgb(0, 0, 0); text-emphasis-position: over; text-orientation: mixed; text-overflow: clip; text-rendering: auto; text-shadow: none; text-size-adjust: auto; text-underline-offset: auto; text-underline-position: auto; timeline-scope: none; touch-action: auto; transform: none; transform-box: view-box; transform-origin: 0px 0px; transform-style: flat; transition: all 0s ease 0s; translate: none; unicode-bidi: normal; user-select: text; vector-effect: none; vertical-align: baseline; view-timeline: none 0px; view-transition-name: none; visibility: visible; border-block-end: 0px none rgb(0, 0, 0); border-block-start: 0px none rgb(0, 0, 0); border-inline-end: 0px none rgb(0, 0, 0); -webkit-border-image: none; border-inline-start: 0px none rgb(0, 0, 0); -webkit-box-align: stretch; -webkit-box-decoration-break: slice; -webkit-box-direction: normal; -webkit-box-flex: 0; -webkit-box-ordinal-group: 1; -webkit-box-orient: horizontal; -webkit-box-pack: start; -webkit-font-smoothing: auto; -webkit-line-break: auto; -webkit-locale: &amp;quot;fr-FR&amp;quot;; block-size: auto; margin-block: 0px; margin-inline: 0px; -webkit-mask-box-image-source: none; -webkit-mask-box-image-slice: 0 fill; -webkit-mask-box-image-width: auto; -webkit-mask-box-image-outset: 0; -webkit-mask-box-image-repeat: stretch; mask: none 0% 0% / auto repeat source-over; max-block-size: none; max-inline-size: none; min-block-size: 0px; min-inline-size: 0px; padding-block: 0px; padding-inline: 0px; -webkit-print-color-adjust: economy; -webkit-rtl-ordering: logical; -webkit-ruby-position: before; -webkit-tap-highlight-color: rgba(0, 0, 0, 0); -webkit-text-combine: none; -webkit-text-fill-color: rgb(0, 0, 0); -webkit-text-orientation: vertical-right; -webkit-text-security: none; -webkit-text-stroke-color: rgb(0, 0, 0); -webkit-user-drag: none; -webkit-user-modify: read-only; -webkit-writing-mode: horizontal-tb; width: auto; will-change: auto; word-break: normal; writing-mode: horizontal-tb; x: 0px; y: 0px; z-index: auto; zoom: 1;&quot; class=&quot;TextRun SCXW222031796 BCX0&quot; lang=&quot;FR-FR&quot; data-contrast=&quot;auto&quot;&gt;&lt;/span&gt;" style="text;html=1;strokeColor=none;fillColor=none;align=center;verticalAlign=middle;whiteSpace=wrap;rounded=0;fontSize=20;fontFamily=Architects Daughter;" vertex="1" parent="1">
          <mxGeometry x="1055" y="-810" width="220" height="50" as="geometry" />
        </mxCell>
        <mxCell id="Qd1faDFN9bf8OgeO_KBa-18" value="&lt;b&gt;&lt;font style=&quot;font-size: 23px;&quot;&gt;numero_de_telephone&lt;/font&gt;&lt;/b&gt;&lt;span style=&quot;margin: 0px; padding: 0px; user-select: text; -webkit-user-drag: none; -webkit-tap-highlight-color: transparent; font-family: Calibri, Calibri_EmbeddedFont, Calibri_MSFontService, sans-serif; font-size: 14.6667px; font-variant-ligatures: none; font-weight: 700; text-align: left; background-color: rgb(255, 255, 255);&quot; class=&quot;NormalTextRun SCXW222031796 BCX0&quot;&gt; &lt;/span&gt;" style="text;html=1;strokeColor=none;fillColor=none;align=center;verticalAlign=middle;whiteSpace=wrap;rounded=0;fontSize=20;fontFamily=Architects Daughter;" vertex="1" parent="1">
          <mxGeometry x="1115" y="-770" width="190" height="50" as="geometry" />
        </mxCell>
        <mxCell id="Qd1faDFN9bf8OgeO_KBa-19" value="&lt;span style=&quot;margin: 0px; padding: 0px; user-select: text; -webkit-user-drag: none; -webkit-tap-highlight-color: transparent; text-align: left; background-color: rgb(255, 255, 255); line-height: 19.425px; font-family: Calibri, Calibri_EmbeddedFont, Calibri_MSFontService, sans-serif; font-variant-ligatures: none !important;&quot; class=&quot;TextRun SCXW22599301 BCX0&quot; lang=&quot;FR-FR&quot; data-contrast=&quot;auto&quot;&gt;&lt;/span&gt;&lt;span style=&quot;margin: 0px; padding: 0px; user-select: text; -webkit-user-drag: none; -webkit-tap-highlight-color: transparent; text-align: left; background-color: rgb(255, 255, 255); line-height: 19.425px; font-family: Calibri, Calibri_EmbeddedFont, Calibri_MSFontService, sans-serif;&quot; data-ccp-props=&quot;{&amp;quot;201341983&amp;quot;:0,&amp;quot;335551550&amp;quot;:1,&amp;quot;335551620&amp;quot;:1,&amp;quot;335559739&amp;quot;:160,&amp;quot;335559740&amp;quot;:259}&quot; class=&quot;EOP SCXW22599301 BCX0&quot;&gt;&lt;font style=&quot;font-size: 26px;&quot;&gt;&lt;b&gt;&lt;span style=&quot;margin: 0px; padding: 0px; user-select: text; -webkit-user-drag: none; -webkit-tap-highlight-color: transparent; line-height: 19.425px; font-variant-ligatures: none !important;&quot; class=&quot;TextRun SCXW22599301 BCX0&quot; lang=&quot;FR-FR&quot; data-contrast=&quot;auto&quot;&gt;&lt;/span&gt;&lt;span style=&quot;margin: 0px; padding: 0px; user-select: text; -webkit-user-drag: none; -webkit-tap-highlight-color: transparent; line-height: 19.425px;&quot; data-ccp-props=&quot;{&amp;quot;201341983&amp;quot;:0,&amp;quot;335551550&amp;quot;:1,&amp;quot;335551620&amp;quot;:1,&amp;quot;335559739&amp;quot;:160,&amp;quot;335559740&amp;quot;:259}&quot; class=&quot;EOP SCXW22599301 BCX0&quot;&gt;&lt;span style=&quot;margin: 0px; padding: 0px; user-select: text; -webkit-user-drag: none; -webkit-tap-highlight-color: transparent; line-height: 19.425px; font-variant-ligatures: none !important;&quot; class=&quot;TextRun SCXW22599301 BCX0&quot; lang=&quot;FR-FR&quot; data-contrast=&quot;auto&quot;&gt;&lt;/span&gt;&lt;span style=&quot;margin: 0px; padding: 0px; user-select: text; -webkit-user-drag: none; -webkit-tap-highlight-color: transparent; line-height: 19.425px;&quot; data-ccp-props=&quot;{&amp;quot;201341983&amp;quot;:0,&amp;quot;335551550&amp;quot;:1,&amp;quot;335551620&amp;quot;:1,&amp;quot;335559739&amp;quot;:160,&amp;quot;335559740&amp;quot;:259}&quot; class=&quot;EOP SCXW22599301 BCX0&quot;&gt;&lt;span style=&quot;margin: 0px; padding: 0px; user-select: text; -webkit-user-drag: none; -webkit-tap-highlight-color: transparent; line-height: 19.425px; font-variant-ligatures: none !important;&quot; class=&quot;TextRun SCXW22599301 BCX0&quot; lang=&quot;FR-FR&quot; data-contrast=&quot;auto&quot;&gt;&lt;/span&gt;&lt;span style=&quot;margin: 0px; padding: 0px; user-select: text; -webkit-user-drag: none; -webkit-tap-highlight-color: transparent; line-height: 19.425px;&quot; data-ccp-props=&quot;{&amp;quot;201341983&amp;quot;:0,&amp;quot;335551550&amp;quot;:1,&amp;quot;335551620&amp;quot;:1,&amp;quot;335559739&amp;quot;:160,&amp;quot;335559740&amp;quot;:259}&quot; class=&quot;EOP SCXW22599301 BCX0&quot;&gt;&lt;span style=&quot;margin: 0px; padding: 0px; user-select: text; -webkit-user-drag: none; -webkit-tap-highlight-color: transparent; line-height: 19.425px; font-variant-ligatures: none !important;&quot; class=&quot;TextRun SCXW22599301 BCX0&quot; lang=&quot;FR-FR&quot; data-contrast=&quot;auto&quot;&gt;&lt;/span&gt;&lt;span style=&quot;margin: 0px; padding: 0px; user-select: text; -webkit-user-drag: none; -webkit-tap-highlight-color: transparent; line-height: 19.425px;&quot; data-ccp-props=&quot;{&amp;quot;201341983&amp;quot;:0,&amp;quot;335551550&amp;quot;:1,&amp;quot;335551620&amp;quot;:1,&amp;quot;335559739&amp;quot;:160,&amp;quot;335559740&amp;quot;:259}&quot; class=&quot;EOP SCXW22599301 BCX0&quot;&gt;&lt;span style=&quot;margin: 0px; padding: 0px; user-select: text; -webkit-user-drag: none; -webkit-tap-highlight-color: transparent; line-height: 19.425px; font-variant-ligatures: none !important;&quot; class=&quot;TextRun SCXW22599301 BCX0&quot; lang=&quot;FR-FR&quot; data-contrast=&quot;auto&quot;&gt;&lt;/span&gt;&lt;span style=&quot;margin: 0px; padding: 0px; user-select: text; -webkit-user-drag: none; -webkit-tap-highlight-color: transparent; line-height: 19.425px;&quot; data-ccp-props=&quot;{&amp;quot;201341983&amp;quot;:0,&amp;quot;335551550&amp;quot;:1,&amp;quot;335551620&amp;quot;:1,&amp;quot;335559739&amp;quot;:160,&amp;quot;335559740&amp;quot;:259}&quot; class=&quot;EOP SCXW22599301 BCX0&quot;&gt;&lt;span style=&quot;margin: 0px; padding: 0px; user-select: text; -webkit-user-drag: none; -webkit-tap-highlight-color: transparent; line-height: 19.425px; font-variant-ligatures: none !important;&quot; class=&quot;TextRun SCXW22599301 BCX0&quot; lang=&quot;FR-FR&quot; data-contrast=&quot;auto&quot;&gt;&lt;/span&gt;&lt;span style=&quot;margin: 0px; padding: 0px; user-select: text; -webkit-user-drag: none; -webkit-tap-highlight-color: transparent; line-height: 19.425px;&quot; data-ccp-props=&quot;{&amp;quot;201341983&amp;quot;:0,&amp;quot;335551550&amp;quot;:1,&amp;quot;335551620&amp;quot;:1,&amp;quot;335559739&amp;quot;:160,&amp;quot;335559740&amp;quot;:259}&quot; class=&quot;EOP SCXW22599301 BCX0&quot;&gt;&lt;span style=&quot;margin: 0px; padding: 0px; user-select: text; -webkit-user-drag: none; -webkit-tap-highlight-color: transparent; line-height: 19.425px; font-variant-ligatures: none !important;&quot; class=&quot;TextRun SCXW123907947 BCX0&quot; lang=&quot;FR-FR&quot; data-contrast=&quot;auto&quot;&gt;&lt;/span&gt;&lt;span style=&quot;margin: 0px; padding: 0px; user-select: text; -webkit-user-drag: none; -webkit-tap-highlight-color: transparent; line-height: 19.425px;&quot; data-ccp-props=&quot;{&amp;quot;201341983&amp;quot;:0,&amp;quot;335551550&amp;quot;:1,&amp;quot;335551620&amp;quot;:1,&amp;quot;335559739&amp;quot;:160,&amp;quot;335559740&amp;quot;:259}&quot; class=&quot;EOP SCXW123907947 BCX0&quot;&gt;&lt;span style=&quot;margin: 0px; padding: 0px; user-select: text; -webkit-user-drag: none; -webkit-tap-highlight-color: transparent; line-height: 19.425px; font-variant-ligatures: none !important;&quot; class=&quot;TextRun SCXW123907947 BCX0&quot; lang=&quot;FR-FR&quot; data-contrast=&quot;auto&quot;&gt;&lt;/span&gt;&lt;span style=&quot;margin: 0px; padding: 0px; user-select: text; -webkit-user-drag: none; -webkit-tap-highlight-color: transparent; line-height: 19.425px;&quot; data-ccp-props=&quot;{&amp;quot;201341983&amp;quot;:0,&amp;quot;335551550&amp;quot;:1,&amp;quot;335551620&amp;quot;:1,&amp;quot;335559739&amp;quot;:160,&amp;quot;335559740&amp;quot;:259}&quot; class=&quot;EOP SCXW123907947 BCX0&quot;&gt;sexe&amp;nbsp;&lt;/span&gt;&amp;nbsp;&lt;/span&gt;&amp;nbsp;&lt;/span&gt;&amp;nbsp;&lt;/span&gt;&amp;nbsp;&lt;/span&gt;&amp;nbsp;&lt;/span&gt;&amp;nbsp;&lt;/span&gt;&amp;nbsp;&lt;/span&gt;&amp;nbsp;&lt;/b&gt;&lt;/font&gt;&lt;/span&gt;" style="text;html=1;strokeColor=none;fillColor=none;align=center;verticalAlign=middle;whiteSpace=wrap;rounded=0;fontSize=20;fontFamily=Architects Daughter;" vertex="1" parent="1">
          <mxGeometry x="1095" y="-720" width="210" height="40" as="geometry" />
        </mxCell>
        <mxCell id="Qd1faDFN9bf8OgeO_KBa-21" value="&lt;b&gt;Chambre&lt;/b&gt;&lt;span style=&quot;margin: 0px; padding: 0px; user-select: text; -webkit-user-drag: none; -webkit-tap-highlight-color: transparent; font-family: Calibri, Calibri_EmbeddedFont, Calibri_MSFontService, sans-serif; font-size: 14.6667px; font-variant-ligatures: none; font-weight: 700; text-align: left; background-color: rgb(255, 255, 255);&quot; class=&quot;NormalTextRun SCXW98998741 BCX0&quot;&gt; &lt;/span&gt;" style="text;html=1;strokeColor=none;fillColor=none;align=center;verticalAlign=middle;whiteSpace=wrap;rounded=0;fontSize=20;fontFamily=Architects Daughter;" vertex="1" parent="1">
          <mxGeometry x="-400" y="-1120" width="250" height="40" as="geometry" />
        </mxCell>
        <mxCell id="Qd1faDFN9bf8OgeO_KBa-22" value="&lt;b&gt;&lt;font style=&quot;font-size: 25px;&quot;&gt;numero_chambre&lt;/font&gt;&lt;/b&gt;&lt;span style=&quot;margin: 0px; padding: 0px; user-select: text; -webkit-user-drag: none; -webkit-tap-highlight-color: transparent; font-family: Calibri, Calibri_EmbeddedFont, Calibri_MSFontService, sans-serif; font-size: 14.6667px; font-variant-ligatures: none; font-weight: 700; text-align: left; background-color: rgb(255, 255, 255);&quot; class=&quot;NormalTextRun SCXW98998741 BCX0&quot;&gt; &lt;/span&gt;" style="text;html=1;strokeColor=none;fillColor=none;align=center;verticalAlign=middle;whiteSpace=wrap;rounded=0;fontSize=20;fontFamily=Architects Daughter;" vertex="1" parent="1">
          <mxGeometry x="-390" y="-1039" width="250" height="50" as="geometry" />
        </mxCell>
        <mxCell id="Qd1faDFN9bf8OgeO_KBa-23" value="&lt;div style=&quot;text-align: left; font-size: 25px;&quot;&gt;&lt;font style=&quot;font-size: 25px;&quot; face=&quot;WordVisi_MSFontService, Calibri, Calibri_EmbeddedFont, Calibri_MSFontService, sans-serif&quot;&gt;&lt;b style=&quot;&quot;&gt;chambre_image&lt;/b&gt;&lt;/font&gt;&lt;/div&gt;&lt;span style=&quot;accent-color: auto; place-content: normal; place-items: normal; place-self: auto; alignment-baseline: auto; animation: 0s ease 0s 1 normal none running none; animation-composition: replace; app-region: none; appearance: none; aspect-ratio: auto; backdrop-filter: none; backface-visibility: visible; background: none 0% 0% / auto repeat scroll padding-box border-box rgba(0, 0, 0, 0); background-blend-mode: normal; baseline-shift: 0px; baseline-source: auto; border-image: none 100% / 1 / 0 stretch; border-color: rgb(0, 0, 0); border-collapse: separate; border-end-end-radius: 0px; border-end-start-radius: 0px; border-width: 0px; border-style: none; border-spacing: 0px; border-start-end-radius: 0px; border-start-start-radius: 0px; border-radius: 0px; inset: auto; box-shadow: none; box-sizing: content-box; break-after: auto; break-before: auto; break-inside: auto; buffered-rendering: auto; caption-side: top; caret-color: rgb(0, 0, 0); clear: none; clip: auto; clip-path: none; clip-rule: nonzero; color-interpolation: srgb; color-interpolation-filters: linearrgb; color-rendering: auto; color-scheme: normal; columns: auto; column-fill: balance; gap: normal; column-rule: 0px rgb(0, 0, 0); column-span: none; contain: none; contain-intrinsic-block-size: none; contain-intrinsic-size: none; contain-intrinsic-inline-size: none; container: none; content: normal; content-visibility: visible; counter-increment: none; counter-reset: none; counter-set: none; cursor: text; cx: 0px; cy: 0px; d: none; direction: ltr; display: inline; dominant-baseline: auto; empty-cells: show; fill: rgb(0, 0, 0); fill-opacity: 1; fill-rule: nonzero; filter: none; flex: 0 1 auto; flex-flow: row; float: none; flood-color: rgb(0, 0, 0); flood-opacity: 1; font-family: WordVisi_MSFontService, Calibri, Calibri_EmbeddedFont, Calibri_MSFontService, sans-serif; font-feature-settings: normal; font-kerning: none; font-optical-sizing: auto; font-palette: normal; font-stretch: 100%; font-synthesis: weight style small-caps; font-variant-ligatures: no-common-ligatures no-discretionary-ligatures no-historical-ligatures no-contextual; font-variant-numeric: normal; font-variant-east-asian: normal; font-variant-alternates: normal; font-variant-position: normal; font-variation-settings: normal; font-weight: 700; forced-color-adjust: auto; grid-area: auto; grid: none; height: auto; hyphenate-character: auto; hyphenate-limit-chars: auto; hyphens: manual; image-orientation: from-image; image-rendering: auto; initial-letter: normal; inline-size: auto; inset-block: auto; inset-inline: auto; isolation: auto; lighting-color: rgb(255, 255, 255); line-break: auto; line-height: 19.425px; list-style: outside none disc; margin: 0px; marker: none; mask-type: luminance; math-depth: 0; math-shift: normal; math-style: normal; max-height: none; max-width: none; min-height: 0px; min-width: 0px; mix-blend-mode: normal; object-fit: fill; object-position: 50% 50%; object-view-box: none; offset: auto; opacity: 1; order: 0; outline: rgb(0, 0, 0) none 0px; outline-offset: 0px; overflow: visible; overflow-anchor: auto; overflow-clip-margin: 0px; overflow-wrap: break-word; overlay: none; overscroll-behavior-block: auto; overscroll-behavior-inline: auto; overscroll-behavior: auto; padding: 0px; page: auto; paint-order: normal; perspective: none; perspective-origin: 0px 0px; pointer-events: auto; position: static; quotes: auto; r: 0px; resize: none; rotate: none; ruby-position: over; rx: auto; ry: auto; scale: none; scroll-behavior: auto; scroll-margin-block: 0px; scroll-margin: 0px; scroll-margin-inline: 0px; scroll-padding-block: auto; scroll-padding: auto; scroll-padding-inline: auto; scroll-snap-align: none; scroll-snap-stop: normal; scroll-snap-type: none; scroll-timeline: none; scrollbar-gutter: auto; shape-image-threshold: 0; shape-margin: 0px; shape-outside: none; shape-rendering: auto; speak: normal; stop-color: rgb(0, 0, 0); stop-opacity: 1; stroke: none; stroke-dasharray: none; stroke-dashoffset: 0px; stroke-linecap: butt; stroke-linejoin: miter; stroke-miterlimit: 4; stroke-opacity: 1; stroke-width: 1px; tab-size: 8; table-layout: auto; text-align: left; text-align-last: auto; text-anchor: start; text-combine-upright: none; text-decoration-style: solid; text-decoration-color: rgb(0, 0, 0); text-decoration-skip-ink: auto; text-emphasis: none rgb(0, 0, 0); text-emphasis-position: over; text-orientation: mixed; text-overflow: clip; text-rendering: auto; text-shadow: none; text-size-adjust: auto; text-underline-offset: auto; text-underline-position: auto; timeline-scope: none; touch-action: auto; transform: none; transform-box: view-box; transform-origin: 0px 0px; transform-style: flat; transition: all 0s ease 0s; translate: none; unicode-bidi: normal; user-select: text; vector-effect: none; vertical-align: baseline; view-timeline: none 0px; view-transition-name: none; visibility: visible; border-block-end: 0px none rgb(0, 0, 0); border-block-start: 0px none rgb(0, 0, 0); border-inline-end: 0px none rgb(0, 0, 0); -webkit-border-image: none; border-inline-start: 0px none rgb(0, 0, 0); -webkit-box-align: stretch; -webkit-box-decoration-break: slice; -webkit-box-direction: normal; -webkit-box-flex: 0; -webkit-box-ordinal-group: 1; -webkit-box-orient: horizontal; -webkit-box-pack: start; -webkit-font-smoothing: auto; -webkit-line-break: auto; -webkit-locale: &amp;quot;fr-FR&amp;quot;; block-size: auto; margin-block: 0px; margin-inline: 0px; -webkit-mask-box-image-source: none; -webkit-mask-box-image-slice: 0 fill; -webkit-mask-box-image-width: auto; -webkit-mask-box-image-outset: 0; -webkit-mask-box-image-repeat: stretch; mask: none 0% 0% / auto repeat source-over; max-block-size: none; max-inline-size: none; min-block-size: 0px; min-inline-size: 0px; padding-block: 0px; padding-inline: 0px; -webkit-print-color-adjust: economy; -webkit-rtl-ordering: logical; -webkit-ruby-position: before; -webkit-tap-highlight-color: rgba(0, 0, 0, 0); -webkit-text-combine: none; -webkit-text-fill-color: rgb(0, 0, 0); -webkit-text-orientation: vertical-right; -webkit-text-security: none; -webkit-text-stroke-color: rgb(0, 0, 0); -webkit-user-drag: none; -webkit-user-modify: read-only; -webkit-writing-mode: horizontal-tb; width: auto; will-change: auto; word-break: normal; writing-mode: horizontal-tb; x: 0px; y: 0px; z-index: auto; zoom: 1; font-size: 25px;&quot; class=&quot;TextRun SCXW98998741 BCX0&quot; lang=&quot;FR-FR&quot; data-contrast=&quot;auto&quot;&gt;&lt;/span&gt;" style="text;html=1;strokeColor=none;fillColor=none;align=center;verticalAlign=middle;whiteSpace=wrap;rounded=0;fontSize=20;fontFamily=Architects Daughter;" vertex="1" parent="1">
          <mxGeometry x="-385" y="-939" width="220" height="50" as="geometry" />
        </mxCell>
        <mxCell id="Qd1faDFN9bf8OgeO_KBa-24" value="&lt;div style=&quot;text-align: left; font-size: 26px;&quot;&gt;&lt;font style=&quot;font-size: 26px;&quot; face=&quot;WordVisi_MSFontService, Calibri, Calibri_EmbeddedFont, Calibri_MSFontService, sans-serif&quot;&gt;&lt;b style=&quot;&quot;&gt;capacite&lt;/b&gt;&lt;/font&gt;&lt;/div&gt;&lt;span style=&quot;accent-color: auto; place-content: normal; place-items: normal; place-self: auto; alignment-baseline: auto; animation: 0s ease 0s 1 normal none running none; animation-composition: replace; app-region: none; appearance: none; aspect-ratio: auto; backdrop-filter: none; backface-visibility: visible; background: none 0% 0% / auto repeat scroll padding-box border-box rgba(0, 0, 0, 0); background-blend-mode: normal; baseline-shift: 0px; baseline-source: auto; border-image: none 100% / 1 / 0 stretch; border-color: rgb(0, 0, 0); border-collapse: separate; border-end-end-radius: 0px; border-end-start-radius: 0px; border-width: 0px; border-style: none; border-spacing: 0px; border-start-end-radius: 0px; border-start-start-radius: 0px; border-radius: 0px; inset: auto; box-shadow: none; box-sizing: content-box; break-after: auto; break-before: auto; break-inside: auto; buffered-rendering: auto; caption-side: top; caret-color: rgb(0, 0, 0); clear: none; clip: auto; clip-path: none; clip-rule: nonzero; color-interpolation: srgb; color-interpolation-filters: linearrgb; color-rendering: auto; color-scheme: normal; columns: auto; column-fill: balance; gap: normal; column-rule: 0px rgb(0, 0, 0); column-span: none; contain: none; contain-intrinsic-block-size: none; contain-intrinsic-size: none; contain-intrinsic-inline-size: none; container: none; content: normal; content-visibility: visible; counter-increment: none; counter-reset: none; counter-set: none; cursor: text; cx: 0px; cy: 0px; d: none; direction: ltr; display: inline; dominant-baseline: auto; empty-cells: show; fill: rgb(0, 0, 0); fill-opacity: 1; fill-rule: nonzero; filter: none; flex: 0 1 auto; flex-flow: row; float: none; flood-color: rgb(0, 0, 0); flood-opacity: 1; font-family: WordVisi_MSFontService, Calibri, Calibri_EmbeddedFont, Calibri_MSFontService, sans-serif; font-feature-settings: normal; font-kerning: none; font-optical-sizing: auto; font-palette: normal; font-size: 26px; font-stretch: 100%; font-synthesis: weight style small-caps; font-variant-ligatures: no-common-ligatures no-discretionary-ligatures no-historical-ligatures no-contextual; font-variant-numeric: normal; font-variant-east-asian: normal; font-variant-alternates: normal; font-variant-position: normal; font-variation-settings: normal; font-weight: 700; forced-color-adjust: auto; grid-area: auto; grid: none; height: auto; hyphenate-character: auto; hyphenate-limit-chars: auto; hyphens: manual; image-orientation: from-image; image-rendering: auto; initial-letter: normal; inline-size: auto; inset-block: auto; inset-inline: auto; isolation: auto; lighting-color: rgb(255, 255, 255); line-break: auto; line-height: 19.425px; list-style: outside none disc; margin: 0px; marker: none; mask-type: luminance; math-depth: 0; math-shift: normal; math-style: normal; max-height: none; max-width: none; min-height: 0px; min-width: 0px; mix-blend-mode: normal; object-fit: fill; object-position: 50% 50%; object-view-box: none; offset: auto; opacity: 1; order: 0; outline: rgb(0, 0, 0) none 0px; outline-offset: 0px; overflow: visible; overflow-anchor: auto; overflow-clip-margin: 0px; overflow-wrap: break-word; overlay: none; overscroll-behavior-block: auto; overscroll-behavior-inline: auto; overscroll-behavior: auto; padding: 0px; page: auto; paint-order: normal; perspective: none; perspective-origin: 0px 0px; pointer-events: auto; position: static; quotes: auto; r: 0px; resize: none; rotate: none; ruby-position: over; rx: auto; ry: auto; scale: none; scroll-behavior: auto; scroll-margin-block: 0px; scroll-margin: 0px; scroll-margin-inline: 0px; scroll-padding-block: auto; scroll-padding: auto; scroll-padding-inline: auto; scroll-snap-align: none; scroll-snap-stop: normal; scroll-snap-type: none; scroll-timeline: none; scrollbar-gutter: auto; shape-image-threshold: 0; shape-margin: 0px; shape-outside: none; shape-rendering: auto; speak: normal; stop-color: rgb(0, 0, 0); stop-opacity: 1; stroke: none; stroke-dasharray: none; stroke-dashoffset: 0px; stroke-linecap: butt; stroke-linejoin: miter; stroke-miterlimit: 4; stroke-opacity: 1; stroke-width: 1px; tab-size: 8; table-layout: auto; text-align: left; text-align-last: auto; text-anchor: start; text-combine-upright: none; text-decoration-style: solid; text-decoration-color: rgb(0, 0, 0); text-decoration-skip-ink: auto; text-emphasis: none rgb(0, 0, 0); text-emphasis-position: over; text-orientation: mixed; text-overflow: clip; text-rendering: auto; text-shadow: none; text-size-adjust: auto; text-underline-offset: auto; text-underline-position: auto; timeline-scope: none; touch-action: auto; transform: none; transform-box: view-box; transform-origin: 0px 0px; transform-style: flat; transition: all 0s ease 0s; translate: none; unicode-bidi: normal; user-select: text; vector-effect: none; vertical-align: baseline; view-timeline: none 0px; view-transition-name: none; visibility: visible; border-block-end: 0px none rgb(0, 0, 0); border-block-start: 0px none rgb(0, 0, 0); border-inline-end: 0px none rgb(0, 0, 0); -webkit-border-image: none; border-inline-start: 0px none rgb(0, 0, 0); -webkit-box-align: stretch; -webkit-box-decoration-break: slice; -webkit-box-direction: normal; -webkit-box-flex: 0; -webkit-box-ordinal-group: 1; -webkit-box-orient: horizontal; -webkit-box-pack: start; -webkit-font-smoothing: auto; -webkit-line-break: auto; -webkit-locale: &amp;quot;fr-FR&amp;quot;; block-size: auto; margin-block: 0px; margin-inline: 0px; -webkit-mask-box-image-source: none; -webkit-mask-box-image-slice: 0 fill; -webkit-mask-box-image-width: auto; -webkit-mask-box-image-outset: 0; -webkit-mask-box-image-repeat: stretch; mask: none 0% 0% / auto repeat source-over; max-block-size: none; max-inline-size: none; min-block-size: 0px; min-inline-size: 0px; padding-block: 0px; padding-inline: 0px; -webkit-print-color-adjust: economy; -webkit-rtl-ordering: logical; -webkit-ruby-position: before; -webkit-tap-highlight-color: rgba(0, 0, 0, 0); -webkit-text-combine: none; -webkit-text-fill-color: rgb(0, 0, 0); -webkit-text-orientation: vertical-right; -webkit-text-security: none; -webkit-text-stroke-color: rgb(0, 0, 0); -webkit-user-drag: none; -webkit-user-modify: read-only; -webkit-writing-mode: horizontal-tb; width: auto; will-change: auto; word-break: normal; writing-mode: horizontal-tb; x: 0px; y: 0px; z-index: auto; zoom: 1;&quot; class=&quot;TextRun SCXW98998741 BCX0&quot; lang=&quot;FR-FR&quot; data-contrast=&quot;auto&quot;&gt;&lt;/span&gt;" style="text;html=1;strokeColor=none;fillColor=none;align=center;verticalAlign=middle;whiteSpace=wrap;rounded=0;fontSize=20;fontFamily=Architects Daughter;" vertex="1" parent="1">
          <mxGeometry x="-410" y="-990" width="200" height="50" as="geometry" />
        </mxCell>
        <mxCell id="Qd1faDFN9bf8OgeO_KBa-25" value="&lt;b&gt;&lt;font style=&quot;font-size: 27px;&quot;&gt; catÃ©gorie&lt;/font&gt;&lt;/b&gt;&lt;span style=&quot;margin: 0px; padding: 0px; user-select: text; -webkit-user-drag: none; -webkit-tap-highlight-color: transparent; font-family: Calibri, Calibri_EmbeddedFont, Calibri_MSFontService, sans-serif; font-size: 14.6667px; font-variant-ligatures: none; font-weight: 700; text-align: left; background-color: rgb(255, 255, 255);&quot; class=&quot;NormalTextRun SCXW98998741 BCX0&quot;&gt; &lt;/span&gt;" style="text;html=1;strokeColor=none;fillColor=none;align=center;verticalAlign=middle;whiteSpace=wrap;rounded=0;fontSize=20;fontFamily=Architects Daughter;" vertex="1" parent="1">
          <mxGeometry x="-385" y="-889" width="190" height="50" as="geometry" />
        </mxCell>
        <mxCell id="Qd1faDFN9bf8OgeO_KBa-26" value=" &lt;span style=&quot;margin: 0px; padding: 0px; user-select: text; -webkit-user-drag: none; -webkit-tap-highlight-color: transparent; background-color: var(--clrSpellingErrorHighlightBg, #ffe5e5); background-repeat: repeat-x; background-position: left bottom; background-image: var(--urlSpellingErrorV2, url(&#39;data:image/svg+xml;base64,PD94bWwgdmVyc2lvbj0iMS4wIiBlbmNvZGluZz0iVVRGLTgiPz4KPHN2ZyB3aWR0aD0iNXB4IiBoZWlnaHQ9IjRweCIgdmlld0JveD0iMCAwIDUgNCIgdmVyc2lvbj0iMS4xIiB4bWxucz0iaHR0cDovL3d3dy53My5vcmcvMjAwMC9zdmciIHhtbG5zOnhsaW5rPSJodHRwOi8vd3d3LnczLm9yZy8xOTk5L3hsaW5rIj4KICAgIDwhLS0gR2VuZXJhdG9yOiBTa2V0Y2ggNTYuMiAoODE2NzIpIC0gaHR0cHM6Ly9za2V0Y2guY29tIC0tPgogICAgPHRpdGxlPnNwZWxsaW5nX3NxdWlnZ2xlPC90aXRsZT4KICAgIDxkZXNjPkNyZWF0ZWQgd2l0aCBTa2V0Y2guPC9kZXNjPgogICAgPGcgaWQ9IkZsYWdzIiBzdHJva2U9Im5vbmUiIHN0cm9rZS13aWR0aD0iMSIgZmlsbD0ibm9uZSIgZmlsbC1ydWxlPSJldmVub2RkIj4KICAgICAgICA8ZyB0cmFuc2Zvcm09InRyYW5zbGF0ZSgtMTAxMC4wMDAwMDAsIC0yOTYuMDAwMDAwKSIgaWQ9InNwZWxsaW5nX3NxdWlnZ2xlIj4KICAgICAgICAgICAgPGcgdHJhbnNmb3JtPSJ0cmFuc2xhdGUoMTAxMC4wMDAwMDAsIDI5Ni4wMDAwMDApIj4KICAgICAgICAgICAgICAgIDxwYXRoIGQ9Ik0wLDMgQzEuMjUsMyAxLjI1LDEgMi41LDEgQzMuNzUsMSAzLjc1LDMgNSwzIiBpZD0iUGF0aCIgc3Ryb2tlPSIjRUIwMDAwIiBzdHJva2Utd2lkdGg9IjEiPjwvcGF0aD4KICAgICAgICAgICAgICAgIDxyZWN0IGlkPSJSZWN0YW5nbGUiIHg9IjAiIHk9IjAiIHdpZHRoPSI1IiBoZWlnaHQ9IjQiPjwvcmVjdD4KICAgICAgICAgICAgPC9nPgogICAgICAgIDwvZz4KICAgIDwvZz4KPC9zdmc+&#39;)); border-bottom: 1px solid transparent; font-family: Calibri, Calibri_EmbeddedFont, Calibri_MSFontService, sans-serif; font-variant-ligatures: none; font-weight: 700; text-align: left;&quot; class=&quot;NormalTextRun SpellingErrorV2Themed SpellingErrorHighlight SCXW98998741 BCX0&quot;&gt;&lt;font style=&quot;font-size: 26px;&quot;&gt;etat_chambre&lt;/font&gt;&lt;/span&gt;" style="text;html=1;strokeColor=none;fillColor=none;align=center;verticalAlign=middle;whiteSpace=wrap;rounded=0;fontSize=20;fontFamily=Architects Daughter;" vertex="1" parent="1">
          <mxGeometry x="-385" y="-839" width="220" height="40" as="geometry" />
        </mxCell>
        <mxCell id="Qd1faDFN9bf8OgeO_KBa-29" value="" style="endArrow=none;html=1;rounded=0;entryX=1;entryY=0.423;entryDx=0;entryDy=0;entryPerimeter=0;exitX=0.998;exitY=0.551;exitDx=0;exitDy=0;exitPerimeter=0;" edge="1" parent="1" source="f91O2NCgC9oTGEupG2Yg-21" target="Qd1faDFN9bf8OgeO_KBa-28">
          <mxGeometry width="50" height="50" relative="1" as="geometry">
            <mxPoint x="260" y="-1010" as="sourcePoint" />
            <mxPoint x="180" y="-1010" as="targetPoint" />
          </mxGeometry>
        </mxCell>
        <mxCell id="Qd1faDFN9bf8OgeO_KBa-28" value="&lt;font style=&quot;font-size: 30px;&quot;&gt;avoir&lt;/font&gt;" style="ellipse;whiteSpace=wrap;html=1;aspect=fixed;" vertex="1" parent="1">
          <mxGeometry x="40" y="-1065" width="130" height="130" as="geometry" />
        </mxCell>
        <mxCell id="Qd1faDFN9bf8OgeO_KBa-30" value="&lt;font style=&quot;font-size: 25px;&quot;&gt;&lt;b&gt;clÃ© Ã©trangÃ¨re&lt;/b&gt;&lt;/font&gt;" style="rounded=1;whiteSpace=wrap;html=1;" vertex="1" parent="1">
          <mxGeometry x="750" y="-830" width="190" height="95" as="geometry" />
        </mxCell>
        <mxCell id="Qd1faDFN9bf8OgeO_KBa-31" value="" style="endArrow=none;html=1;rounded=0;entryX=-0.009;entryY=0.409;entryDx=0;entryDy=0;entryPerimeter=0;exitX=0.95;exitY=0.78;exitDx=0;exitDy=0;exitPerimeter=0;" edge="1" parent="1" source="f91O2NCgC9oTGEupG2Yg-28" target="Qd1faDFN9bf8OgeO_KBa-30">
          <mxGeometry width="50" height="50" relative="1" as="geometry">
            <mxPoint x="440" y="-900" as="sourcePoint" />
            <mxPoint x="490" y="-950" as="targetPoint" />
          </mxGeometry>
        </mxCell>
        <mxCell id="Qd1faDFN9bf8OgeO_KBa-32" value="&lt;font style=&quot;font-size: 25px;&quot;&gt;&lt;b&gt;clÃ© Ã©trangÃ¨re&lt;/b&gt;&lt;/font&gt;" style="rounded=1;whiteSpace=wrap;html=1;" vertex="1" parent="1">
          <mxGeometry x="-50" y="-1264" width="190" height="95" as="geometry" />
        </mxCell>
        <mxCell id="Qd1faDFN9bf8OgeO_KBa-33" value="" style="endArrow=none;html=1;rounded=0;exitX=1;exitY=0.75;exitDx=0;exitDy=0;" edge="1" parent="1" source="Qd1faDFN9bf8OgeO_KBa-32" target="f91O2NCgC9oTGEupG2Yg-25">
          <mxGeometry width="50" height="50" relative="1" as="geometry">
            <mxPoint x="440" y="-900" as="sourcePoint" />
            <mxPoint x="490" y="-950" as="targetPoint" />
          </mxGeometry>
        </mxCell>
        <mxCell id="Qd1faDFN9bf8OgeO_KBa-34" value="" style="endArrow=none;html=1;rounded=0;entryX=0.074;entryY=1.038;entryDx=0;entryDy=0;entryPerimeter=0;exitX=0.407;exitY=-0.016;exitDx=0;exitDy=0;exitPerimeter=0;" edge="1" parent="1" source="f91O2NCgC9oTGEupG2Yg-34" target="Qd1faDFN9bf8OgeO_KBa-32">
          <mxGeometry width="50" height="50" relative="1" as="geometry">
            <mxPoint x="440" y="-900" as="sourcePoint" />
            <mxPoint x="490" y="-950" as="targetPoint" />
          </mxGeometry>
        </mxCell>
        <mxCell id="Qd1faDFN9bf8OgeO_KBa-35" value="" style="endArrow=none;html=1;rounded=0;exitX=0.75;exitY=0;exitDx=0;exitDy=0;entryX=0.179;entryY=0.5;entryDx=0;entryDy=0;entryPerimeter=0;" edge="1" parent="1" source="Qd1faDFN9bf8OgeO_KBa-30" target="Qd1faDFN9bf8OgeO_KBa-10">
          <mxGeometry width="50" height="50" relative="1" as="geometry">
            <mxPoint x="440" y="-900" as="sourcePoint" />
            <mxPoint x="490" y="-950" as="targetPoint" />
          </mxGeometry>
        </mxCell>
        <mxCell id="Qd1faDFN9bf8OgeO_KBa-36" value="&lt;font style=&quot;font-size: 23px;&quot;&gt;&lt;b&gt;CardinalitÃ©&lt;/b&gt;&lt;/font&gt;" style="rounded=1;whiteSpace=wrap;html=1;" vertex="1" parent="1">
          <mxGeometry x="550" y="-1480" width="220" height="100" as="geometry" />
        </mxCell>
        <mxCell id="Qd1faDFN9bf8OgeO_KBa-37" value="" style="endArrow=none;html=1;rounded=0;entryX=0.5;entryY=1;entryDx=0;entryDy=0;" edge="1" parent="1" target="Qd1faDFN9bf8OgeO_KBa-36">
          <mxGeometry width="50" height="50" relative="1" as="geometry">
            <mxPoint x="670" y="-1030" as="sourcePoint" />
            <mxPoint x="490" y="-1030" as="targetPoint" />
          </mxGeometry>
        </mxCell>
        <mxCell id="Qd1faDFN9bf8OgeO_KBa-38" value="&lt;font style=&quot;font-size: 28px;&quot;&gt;1,1&lt;/font&gt;" style="rounded=1;whiteSpace=wrap;html=1;" vertex="1" parent="1">
          <mxGeometry x="630" y="-1045" width="120" height="60" as="geometry" />
        </mxCell>
        <mxCell id="Qd1faDFN9bf8OgeO_KBa-39" value="&lt;font style=&quot;font-size: 29px;&quot;&gt;0,n&lt;/font&gt;" style="rounded=1;whiteSpace=wrap;html=1;" vertex="1" parent="1">
          <mxGeometry x="965" y="-910" width="120" height="60" as="geometry" />
        </mxCell>
        <mxCell id="Qd1faDFN9bf8OgeO_KBa-40" value="" style="endArrow=none;html=1;rounded=0;entryX=0.888;entryY=1.003;entryDx=0;entryDy=0;entryPerimeter=0;" edge="1" parent="1" target="Qd1faDFN9bf8OgeO_KBa-36">
          <mxGeometry width="50" height="50" relative="1" as="geometry">
            <mxPoint x="1010" y="-920" as="sourcePoint" />
            <mxPoint x="490" y="-1040" as="targetPoint" />
          </mxGeometry>
        </mxCell>
        <mxCell id="Qd1faDFN9bf8OgeO_KBa-42" value="&lt;font style=&quot;font-size: 28px;&quot;&gt;0,1&lt;/font&gt;" style="rounded=1;whiteSpace=wrap;html=1;" vertex="1" parent="1">
          <mxGeometry x="140" y="-930" width="120" height="60" as="geometry" />
        </mxCell>
        <mxCell id="Qd1faDFN9bf8OgeO_KBa-43" value="&lt;font style=&quot;font-size: 24px;&quot;&gt;&lt;b&gt;0,n&lt;/b&gt;&lt;/font&gt;" style="rounded=1;whiteSpace=wrap;html=1;" vertex="1" parent="1">
          <mxGeometry x="-90" y="-1080" width="100" height="51" as="geometry" />
        </mxCell>
        <mxCell id="Qd1faDFN9bf8OgeO_KBa-45" value="&lt;font style=&quot;font-size: 23px;&quot;&gt;&lt;b&gt;CardinalitÃ©&lt;/b&gt;&lt;/font&gt;" style="rounded=1;whiteSpace=wrap;html=1;" vertex="1" parent="1">
          <mxGeometry x="-50" y="-670" width="140" height="80" as="geometry" />
        </mxCell>
        <mxCell id="Qd1faDFN9bf8OgeO_KBa-46" value="" style="endArrow=none;html=1;rounded=0;exitX=0.75;exitY=0;exitDx=0;exitDy=0;entryX=0.343;entryY=1.052;entryDx=0;entryDy=0;entryPerimeter=0;" edge="1" parent="1" source="Qd1faDFN9bf8OgeO_KBa-45" target="Qd1faDFN9bf8OgeO_KBa-42">
          <mxGeometry width="50" height="50" relative="1" as="geometry">
            <mxPoint x="440" y="-1050" as="sourcePoint" />
            <mxPoint x="490" y="-1100" as="targetPoint" />
          </mxGeometry>
        </mxCell>
        <mxCell id="Qd1faDFN9bf8OgeO_KBa-47" value="" style="endArrow=none;html=1;rounded=0;entryX=0.376;entryY=-0.014;entryDx=0;entryDy=0;entryPerimeter=0;" edge="1" parent="1" source="Qd1faDFN9bf8OgeO_KBa-43" target="Qd1faDFN9bf8OgeO_KBa-45">
          <mxGeometry width="50" height="50" relative="1" as="geometry">
            <mxPoint x="440" y="-1050" as="sourcePoint" />
            <mxPoint y="-680" as="targetPoint" />
          </mxGeometry>
        </mxCell>
      </root>
    </mxGraphModel>
  </diagram>
</mxfile>
